<svg xmlns="http://www.w3.org/2000/svg" viewBox="0 0 74.87 74.87"><defs><style>.cls-1{fill:#0cccbd;}.cls-2{fill:none;stroke:#0cccbd;stroke-miterlimit:10;stroke-width:0.5px;}</style></defs><title>Asset 14</title><g id="Layer_2" data-name="Layer 2"><g id="Layer_1-2" data-name="Layer 1"><path class="cls-1" d="M32.6,21.85c3.83,0,7.66,0,11.48,0a3.24,3.24,0,0,1,3.32,3.32c0,.95,0,1.9,0,2.85,0,.31.09.41.41.41,1.07,0,2.15,0,3.22.06a4.25,4.25,0,0,1,3.33,1.85C56.56,33.24,58.8,36.13,61,39a1.47,1.47,0,0,1,.26.85c0,1.93,0,3.86,0,5.79,0,.39,0,.63.54.61a.79.79,0,0,1,.83.8,4.34,4.34,0,0,1,0,.72c0,.5-.26.76-.76.79a.8.8,0,0,0-.79.61,3.08,3.08,0,0,1-3,2.1c-.54,0-1.08,0-1.62,0a.56.56,0,0,0-.6.41A5.72,5.72,0,0,1,51,55.62a5.81,5.81,0,0,1-6-3.42,1.85,1.85,0,0,1-.15-.39c-.1-.41-.37-.51-.76-.51H35.88c-.39,0-.79,0-1.19,0a.61.61,0,0,0-.66.45,5.85,5.85,0,0,1-10.85.44,1.17,1.17,0,0,0-1.37-.9,4.93,4.93,0,0,1-1.27-.07,2.82,2.82,0,0,1-2.43-2,.77.77,0,0,0-.75-.6c-.69-.07-.9-.44-.85-1.38a.89.89,0,0,1,1-.94c.43,0,.39-.24.39-.52V25.27a3.24,3.24,0,0,1,2.5-3.36,5.07,5.07,0,0,1,.88-.06Zm0,1.65H21.26a1.5,1.5,0,0,0-1.67,1.61c0,7.17,0,14.34,0,21.51,0,.36.13.43.45.42.88,0,1.76,0,2.63,0a1,1,0,0,0,1-.52,5.83,5.83,0,0,1,9.75,0,1,1,0,0,0,.91.49c3.36,0,6.72,0,10.07,0a1.27,1.27,0,0,0,1.21-.64,5.51,5.51,0,0,1,4.73-2.49,5.64,5.64,0,0,1,5,2.73A.75.75,0,0,0,56,47c1,0,2.07,0,3.1,0,.38,0,.5-.12.5-.49,0-1,0-1.93,0-2.89s0-.9-.87-1h-.17a.82.82,0,0,1-.67-.9.78.78,0,0,1,.74-.73c.26,0,.51,0,.77,0,.09,0,.23-.14.23-.21a2,2,0,0,0-.36-1.31C57.16,36.79,55.07,34,53,31.3a2.77,2.77,0,0,0-2.37-1.18c-1.46,0-2.92,0-4.38,0-.39,0-.51-.12-.51-.51,0-1.36,0-2.72,0-4.08a4,4,0,0,0-.1-1A1.47,1.47,0,0,0,44,23.5ZM54.52,49.8a4.19,4.19,0,1,0-8.37,0,4.19,4.19,0,0,0,8.37,0Zm-21.85,0a4.18,4.18,0,1,0-8.36,0A4.24,4.24,0,0,0,28.49,54,4.17,4.17,0,0,0,32.67,49.8Zm12.07-1.9c-.29,0-.51,0-.74,0H34.44c-.23,0-.34.1-.29.35s.13.66.18,1,.17.39.48.39c1.21,0,2.43,0,3.65,0H44c.18,0,.41.07.45-.24C44.55,48.89,44.64,48.44,44.74,47.9Zm13,0H56.31c-.25,0-.36.1-.31.37s.11.73.21,1.08a.52.52,0,0,0,.35.31,16.65,16.65,0,0,0,1.73,0,1.39,1.39,0,0,0,1.29-1.33c0-.28-.08-.4-.35-.4Zm-36.49,0H19.94c-.21,0-.34.07-.35.32a1.44,1.44,0,0,0,1.05,1.38,4.86,4.86,0,0,0,1.14.07c.79,0,.79-.05,1-.84,0-.19.06-.39.11-.58s-.05-.34-.28-.35Zm28.43-8.38c-1.3,0-2.61,0-3.91,0-.36,0-.5-.08-.49-.47,0-2.2,0-4.39,0-6.59,0-.35.1-.46.45-.46,1.86,0,3.71,0,5.57,0a.7.7,0,0,1,.66.37c1,1.55,2,3.1,3.05,4.65a1.49,1.49,0,0,1,.13,1.63,1.57,1.57,0,0,1-1.46.86C52.39,39.49,51.06,39.48,49.73,39.48Zm3.72-1.72a1.43,1.43,0,0,0-.08-.25c-.79-1.2-1.56-2.4-2.37-3.57a.85.85,0,0,0-.61-.29c-1,0-2,0-2.93,0-.31,0-.42.12-.41.43,0,1.06,0,2.12,0,3.18,0,.43.15.52.54.52,1.8,0,3.6,0,5.39,0Zm-20-3.12L34.11,36c-.65.26-1,.12-1.31-.46a2.08,2.08,0,0,0-.32-.54.5.5,0,0,0-.41-.13c-.06,0-.12.21-.14.33a1.21,1.21,0,0,0,0,.38c0,.36,0,.55-.47.54s-.5-.19-.49-.55c0-.9,0-1.81,0-2.71,0-.36.11-.53.49-.51s1,0,1.56.07a1,1,0,0,1,.93.74,1.25,1.25,0,0,1-.29,1.37A2.11,2.11,0,0,1,33.43,34.64Zm-1-1.45c-.26,0-.48,0-.48.4s.17.44.47.41.6,0,.62-.39S32.72,33.18,32.39,33.19ZM20.67,35.66c0,.28.1.43.4.42.63,0,1.27,0,1.9,0,.34,0,.37-.18.36-.44s0-.45-.34-.44a6.24,6.24,0,0,1-1.06,0c-.11,0-.2-.2-.29-.3.09-.09.18-.23.29-.25a2,2,0,0,1,.59,0c.33,0,.49-.08.5-.45s-.19-.45-.51-.42a2,2,0,0,1-.55,0c-.12,0-.22-.18-.32-.27.1-.1.19-.27.31-.28a4.81,4.81,0,0,1,.93,0c.33,0,.46-.11.45-.45s-.12-.43-.43-.43H21.08c-.29,0-.41.13-.41.41,0,.48,0,1,0,1.45S20.68,35.17,20.67,35.66Zm13.86,0c0,.31.1.47.44.47.62,0,1.24,0,1.87,0,.33,0,.36-.18.36-.44s0-.45-.35-.44a6.25,6.25,0,0,1-1.06,0c-.11,0-.2-.2-.29-.3.1-.09.18-.23.29-.25a2,2,0,0,1,.59,0c.33,0,.49-.08.5-.45s-.19-.45-.51-.42a2,2,0,0,1-.54,0c-.13,0-.22-.18-.33-.27.1-.1.2-.27.31-.28a4.82,4.82,0,0,1,.93,0c.33,0,.46-.11.45-.45s-.11-.43-.42-.43H34.94c-.29,0-.41.13-.41.41,0,.48,0,1,0,1.45S34.55,35.14,34.53,35.62Zm4.58.56c.23,0,.47-.07.7-.14a1.07,1.07,0,0,0,.88-1.18c0-.55-.32-.87-1-1-.28-.07-.58-.1-.86-.19a.4.4,0,0,1-.25-.29.5.5,0,0,1,.26-.28.7.7,0,0,1,.81.18c.17.18.73.13.82-.11a.59.59,0,0,0-.2-.51,1.9,1.9,0,0,0-1.92-.25,1.1,1.1,0,0,0-.79,1.05,1,1,0,0,0,.86,1c.32.09.66.13,1,.24a.45.45,0,0,1,.26.32c0,.08-.16.22-.27.26a.82.82,0,0,1-.93-.21c-.29-.3-.56,0-.79.1a.6.6,0,0,0,.13.5,10.55,10.55,0,0,0,1.22.59Zm3.48,0c.24,0,.48-.07.71-.14a1.07,1.07,0,0,0,.88-1.18c0-.55-.32-.87-1-1-.3-.07-.61-.11-.9-.2a.28.28,0,0,1,0-.54.71.71,0,0,1,.85.16c.18.18.73.13.83-.11a.59.59,0,0,0-.2-.51,1.9,1.9,0,0,0-1.92-.25,1.09,1.09,0,0,0-.79,1.05,1,1,0,0,0,.85,1c.33.09.67.13,1,.24a.43.43,0,0,1,.25.32c0,.07-.15.22-.26.26a.82.82,0,0,1-.93-.2c-.29-.3-.56-.05-.79.09a.63.63,0,0,0,.12.5,10.55,10.55,0,0,0,1.22.59Zm-15.2-2c0-.48,0-1,0-1.44,0-.31.11-.45.42-.43.55,0,1.1,0,1.65.07a1.15,1.15,0,0,1,1,1.27,1.21,1.21,0,0,1-1.17,1.22c-.29,0-.67,0-.85.1s-.08.53-.09.81-.29.27-.5.28-.46,0-.46-.35C27.4,35.22,27.39,34.71,27.39,34.2ZM28.77,34c.34,0,.66,0,.66-.42s-.28-.41-.59-.42-.51,0-.5.41S28.46,34.09,28.77,34ZM27.05,36a13.53,13.53,0,0,0-.78-1.19.84.84,0,0,1,0-1.22A9.73,9.73,0,0,0,27,32.42c-1-.41-1.28.32-1.65,1-.25-.38-.39-.75-.67-.93a2.46,2.46,0,0,0-1-.14l0,.14a6.12,6.12,0,0,0,.5.78,1.21,1.21,0,0,1,0,1.87,7.45,7.45,0,0,0-.63,1c.42,0,.8.08,1-.07a4.69,4.69,0,0,0,.8-1,3,3,0,0,0,.61.9,3.16,3.16,0,0,0,1.05.22Zm19.47,6.74h1.19a.83.83,0,1,0,0-1.65H45.3a.83.83,0,1,0,0,1.65Zm6.3,7.08a2.48,2.48,0,1,0-2.46,2.45A2.42,2.42,0,0,0,52.82,49.8ZM31,49.82a2.5,2.5,0,0,0-2.46-2.52A2.48,2.48,0,1,0,31,49.82Z"/><path class="cls-1" d="M37.43,0A37.44,37.44,0,1,0,74.87,37.43,37.43,37.43,0,0,0,37.43,0Zm0,72.79A35.36,35.36,0,1,1,72.79,37.43,35.36,35.36,0,0,1,37.43,72.79Z"/><circle class="cls-2" cx="37.43" cy="37.43" r="33.02"/></g></g></svg>