<svg xmlns="http://www.w3.org/2000/svg" viewBox="0 0 31 41.71"><defs><style>.cls-1{fill:#fe434e;}.cls-2{fill:#fff;}</style></defs><title>Asset 45</title><g id="Layer_2" data-name="Layer 2"><g id="Layer_1-2" data-name="Layer 1"><path class="cls-1" d="M31,0V41.71L15.39,32.08,0,41.13V0Z"/><path class="cls-2" d="M5.59,18.64a.17.17,0,0,1-.18.17H3.51a.17.17,0,0,1-.14,0,.14.14,0,0,1-.06-.12V18a.18.18,0,0,1,.06-.13.16.16,0,0,1,.14-.05h1.9a.17.17,0,0,1,.18.18Z"/><path class="cls-2" d="M9.52,23.73A8.6,8.6,0,0,1,8,23.57a5.59,5.59,0,0,1-1.2-.35.45.45,0,0,1-.31-.39V22c0-.17.06-.25.2-.25l.15,0A7,7,0,0,0,8,22.05a9.24,9.24,0,0,0,1.31.11,2,2,0,0,0,1.38-.37,1.53,1.53,0,0,0,.38-1.15v-.3a1.74,1.74,0,0,0-.28-1.05,1.16,1.16,0,0,0-1-.4H7.2A.25.25,0,0,1,7,18.82a.28.28,0,0,1-.08-.2v-.9a.3.3,0,0,1,.08-.2.25.25,0,0,1,.19-.07H9.74a1.23,1.23,0,0,0,1-.37,1.66,1.66,0,0,0,.28-1v-.23a1.49,1.49,0,0,0-.33-1,1.64,1.64,0,0,0-1.24-.37A6.69,6.69,0,0,0,8,14.61,8.33,8.33,0,0,0,6.79,15a.56.56,0,0,1-.15,0c-.14,0-.2-.09-.2-.26v-.81c0-.14.1-.27.31-.39A5.08,5.08,0,0,1,8,13.09a6.91,6.91,0,0,1,1.71-.22,4.52,4.52,0,0,1,1.75.31,2.48,2.48,0,0,1,1.2,1A3,3,0,0,1,13,15.82v.23a2.26,2.26,0,0,1-1.23,2.12,2.17,2.17,0,0,1,.91.89A2.56,2.56,0,0,1,13,20.34v.3A3.19,3.19,0,0,1,12.78,22,2.62,2.62,0,0,1,12,23a3.22,3.22,0,0,1-1.12.58A5,5,0,0,1,9.52,23.73Z"/><path class="cls-2" d="M21.49,18.84a8.63,8.63,0,0,1-.25,2.25,3.94,3.94,0,0,1-.73,1.51,2.83,2.83,0,0,1-1.17.86,4.76,4.76,0,0,1-3.16,0A3.07,3.07,0,0,1,15,22.6a4,4,0,0,1-.73-1.52A8.56,8.56,0,0,1,14,18.84V17.78a8.7,8.7,0,0,1,.26-2.25A3.77,3.77,0,0,1,15,14a2.81,2.81,0,0,1,1.17-.85,4.12,4.12,0,0,1,1.58-.28A3.4,3.4,0,0,1,20.54,14a5.93,5.93,0,0,1,.95,3.75Zm-2,0V17.78A5.1,5.1,0,0,0,19,15.22a1.49,1.49,0,0,0-2.56,0A5.1,5.1,0,0,0,16,17.78v1.06a7.3,7.3,0,0,0,.22,2,2,2,0,0,0,.61,1,1.59,1.59,0,0,0,1.83,0,2,2,0,0,0,.61-1A6.87,6.87,0,0,0,19.51,18.84Z"/><path class="cls-2" d="M24.39,20.16c0,.79-.34,1.18-1,1.18a1,1,0,0,1-.74-.29,1.33,1.33,0,0,1-.26-.89V19.6a1.57,1.57,0,0,1,.12-.65.77.77,0,0,1,.34-.39,1,1,0,0,1,.54-.13,1,1,0,0,1,.74.29,1.3,1.3,0,0,1,.26.88Zm-.63,0V19.6a.9.9,0,0,0-.09-.47.3.3,0,0,0-.28-.14.29.29,0,0,0-.28.14.89.89,0,0,0-.1.47v.56a.9.9,0,0,0,.1.48.3.3,0,0,0,.28.15.32.32,0,0,0,.28-.14A1,1,0,0,0,23.76,20.16Zm3-1.64a.11.11,0,0,1,0,.08l-2.9,4.92a.25.25,0,0,1-.07.09.1.1,0,0,1-.08,0h-.56s-.07,0-.07-.06a.13.13,0,0,1,0-.09L26,18.58l.07-.09s0,0,.08,0h.56C26.77,18.47,26.79,18.48,26.79,18.52Zm.72,3.95a1.35,1.35,0,0,1-.26.89,1,1,0,0,1-.74.29.93.93,0,0,1-.74-.29,1.28,1.28,0,0,1-.26-.89v-.56a1.25,1.25,0,0,1,.26-.88,1.09,1.09,0,0,1,1.48,0,1.32,1.32,0,0,1,.26.88Zm-.63,0v-.56a.94.94,0,0,0-.09-.48.32.32,0,0,0-.28-.14.31.31,0,0,0-.28.14.86.86,0,0,0-.1.48v.56a.82.82,0,0,0,.1.48.29.29,0,0,0,.28.14.3.3,0,0,0,.28-.14A.92.92,0,0,0,26.88,22.47Z"/></g></g></svg>