<svg xmlns="http://www.w3.org/2000/svg" viewBox="0 0 105.52 77.41"><defs><style>.cls-1{fill:#757575;}</style></defs><title>Asset 38</title><g id="Layer_2" data-name="Layer 2"><g id="Layer_1-2" data-name="Layer 1"><path class="cls-1" d="M70.67,15.06c2.5,0,4.9,0,7.3,0a12.57,12.57,0,0,1,2.53.28,9.45,9.45,0,0,1,5.59,3.56q8,10.36,15.94,20.76a2.07,2.07,0,0,1,.35,1.17c0,4.64,0,9.28,0,13.92v1h1a2.12,2.12,0,0,1,2.14,2.15c0,.4,0,.81,0,1.21a2.13,2.13,0,0,1-2.35,2.32.92.92,0,0,0-1.12.82,7.23,7.23,0,0,1-6.61,5.25c-1.5.08-3,0-4.52,0a.7.7,0,0,0-.8.57,13.48,13.48,0,0,1-25.6.18.91.91,0,0,0-1-.75q-11.1,0-22.21,0c-.56,0-.82.13-1,.69a13.51,13.51,0,0,1-25.57.08,1,1,0,0,0-1.11-.78,25.6,25.6,0,0,1-4.64-.21A7,7,0,0,1,3.41,62a.74.74,0,0,0-.87-.64C.79,61.41,0,60.63,0,58.89c0-.33,0-.65,0-1a2.13,2.13,0,0,1,2.18-2.19h.93V54.65q0-23.44,0-46.9A7.54,7.54,0,0,1,5,2.44,7.14,7.14,0,0,1,10.5,0H63.34a7.38,7.38,0,0,1,7.33,7.26C70.69,9.81,70.67,12.37,70.67,15.06Zm-4.09,4.07V7.89c0-2.5-1.31-3.83-3.79-3.83H11c-2.44,0-3.75,1.31-3.75,3.76V57.52c2.59,0,5.07,0,7.55,0a1.1,1.1,0,0,0,1.11-.64,13.5,13.5,0,0,1,23.1,0,1.13,1.13,0,0,0,1.12.64q12.27,0,24.54,0a1.08,1.08,0,0,0,1-.6A13.48,13.48,0,0,1,88.89,57a1,1,0,0,0,1,.54c2.58,0,5.17,0,7.75,0,.22,0,.43,0,.64,0V47.94c-.62,0-1.19,0-1.76,0a2,2,0,0,1-2.15-2.09,2.06,2.06,0,0,1,2.17-2h1.94c-.17-1-.05-2.08-.52-2.72C93,34.56,88,28.11,83,21.62a6.11,6.11,0,0,0-5.13-2.49c-3.47,0-6.93,0-10.39,0ZM36.88,63.92a9.42,9.42,0,1,0-9.39,9.4A9.41,9.41,0,0,0,36.88,63.92Zm49.8,0a9.41,9.41,0,0,0-18.82,0,9.41,9.41,0,1,0,18.82,0ZM64.36,59.66h-24l.66,3.7H63.69Zm25.86,0,.67,3.75c1.49,0,3,0,4.4,0a3.16,3.16,0,0,0,2.88-3.74Zm-75.69,0H7.33A3.14,3.14,0,0,0,10,63.33a34.21,34.21,0,0,0,3.92,0Z"/><path class="cls-1" d="M65.75,40.44V23.17c.25,0,.49-.05.73-.05H80a1,1,0,0,1,.93.45c2.44,3.74,4.9,7.46,7.34,11.19a3.67,3.67,0,0,1-3,5.73c-6.34,0-12.69,0-19,0C66,40.48,65.94,40.46,65.75,40.44Zm4.14-4.14H84.32c-2-3-3.88-5.9-5.82-8.78a1,1,0,0,0-.77-.28c-1.75,0-3.51,0-5.26,0H69.89Z"/><path class="cls-1" d="M68.64,43.82c.9,0,1.8,0,2.71,0a2,2,0,0,1,2.11,2.07,2,2,0,0,1-2.06,2q-2.78.06-5.55,0a2,2,0,0,1-2.09-2.1,2.08,2.08,0,0,1,2.18-2C66.84,43.81,67.74,43.82,68.64,43.82Z"/><path class="cls-1" d="M33.24,64a5.78,5.78,0,1,1-11.55-.22A5.78,5.78,0,1,1,33.24,64Z"/><path class="cls-1" d="M83.05,63.93a5.78,5.78,0,1,1-5.72-5.81A5.7,5.7,0,0,1,83.05,63.93Z"/><path class="cls-1" d="M14.15,28.82H10.91v3h3.61v.9H9.83V24.4h4.5v.9H10.91v2.63h3.24Z"/><path class="cls-1" d="M20.47,32.73l-1.06-1.84c-.43-.71-.71-1.16-1-1.65h0c-.24.49-.47.93-.9,1.66l-1,1.83H15.28l2.55-4.22L15.38,24.4h1.25l1.1,2c.31.55.54,1,.76,1.41h0c.24-.49.45-.88.75-1.41l1.14-2h1.24l-2.54,4.05,2.6,4.28Z"/><path class="cls-1" d="M23,24.5A12.15,12.15,0,0,1,25,24.34a3.43,3.43,0,0,1,2.33.69,2.23,2.23,0,0,1,.73,1.74,2.44,2.44,0,0,1-.64,1.78,3.45,3.45,0,0,1-2.55.92,3.76,3.76,0,0,1-.86-.08v3.34H23Zm1.08,4a3.21,3.21,0,0,0,.89.09c1.3,0,2.09-.63,2.09-1.78s-.78-1.63-2-1.63a4.35,4.35,0,0,0-1,.09Z"/><path class="cls-1" d="M29.54,24.51a11.27,11.27,0,0,1,2.06-.17A3.41,3.41,0,0,1,34,25a2.07,2.07,0,0,1,.65,1.58,2.17,2.17,0,0,1-1.56,2.12v0a2.09,2.09,0,0,1,1.22,1.68A13.54,13.54,0,0,0,35,32.73H33.85a10.6,10.6,0,0,1-.56-2c-.24-1.15-.69-1.58-1.67-1.62h-1v3.61H29.54Zm1.07,3.79h1.1c1.15,0,1.88-.62,1.88-1.58s-.78-1.54-1.92-1.55a5.12,5.12,0,0,0-1.06.09Z"/><path class="cls-1" d="M40.5,28.82H37.26v3h3.61v.9H36.18V24.4h4.5v.9H37.26v2.63H40.5Z"/><path class="cls-1" d="M42.11,31.42A3.78,3.78,0,0,0,44,32c1.1,0,1.74-.58,1.74-1.42s-.44-1.22-1.57-1.65C42.85,28.4,42,27.7,42,26.53a2.41,2.41,0,0,1,2.7-2.27,3.78,3.78,0,0,1,1.84.41l-.3.88a3.29,3.29,0,0,0-1.58-.4c-1.14,0-1.57.68-1.57,1.25,0,.78.51,1.16,1.66,1.61,1.4.54,2.12,1.22,2.12,2.45s-1,2.39-2.92,2.39a4.24,4.24,0,0,1-2.12-.53Z"/><path class="cls-1" d="M48.2,31.42a3.78,3.78,0,0,0,1.93.54c1.1,0,1.74-.58,1.74-1.42s-.44-1.22-1.57-1.65c-1.36-.49-2.2-1.19-2.2-2.36a2.41,2.41,0,0,1,2.7-2.27,3.78,3.78,0,0,1,1.84.41l-.3.88a3.29,3.29,0,0,0-1.58-.4c-1.14,0-1.57.68-1.57,1.25,0,.78.51,1.16,1.66,1.61,1.4.54,2.12,1.22,2.12,2.45s-.95,2.39-2.92,2.39a4.24,4.24,0,0,1-2.12-.53Z"/></g></g></svg>