<svg xmlns="http://www.w3.org/2000/svg" viewBox="0 0 38.93 36.98"><defs><style>.cls-1{fill:#fe434e;}</style></defs><title>Asset 14</title><g id="Layer_2" data-name="Layer 2"><g id="Layer_1-2" data-name="Layer 1"><path class="cls-1" d="M5.85,31.48H8.77v.58H6.55v1.81H8.6v.57h-2V36.9h-.7Z"/><path class="cls-1" d="M9.76,31.55a7.59,7.59,0,0,1,1.35-.11,2.17,2.17,0,0,1,1.56.44,1.33,1.33,0,0,1,.43,1,1.42,1.42,0,0,1-1,1.38v0a1.32,1.32,0,0,1,.79,1.09,9.09,9.09,0,0,0,.42,1.49h-.72a6.89,6.89,0,0,1-.36-1.3c-.16-.75-.45-1-1.09-1.05h-.66V36.9h-.7Zm.7,2.47h.72c.75,0,1.22-.41,1.22-1s-.51-1-1.25-1a3.1,3.1,0,0,0-.69.06Z"/><path class="cls-1" d="M16.89,34.36h-2.1v2h2.34v.59h-3V31.48H17v.58H14.79v1.72h2.1Z"/><path class="cls-1" d="M20.85,34.36H18.74v2h2.35v.59H18V31.48H21v.58H18.74v1.72h2.11Z"/><path class="cls-1" d="M21.9,36a2.39,2.39,0,0,0,1.25.36c.72,0,1.14-.38,1.14-.93s-.29-.79-1-1.07-1.43-.78-1.43-1.54a1.56,1.56,0,0,1,1.76-1.47,2.53,2.53,0,0,1,1.19.26l-.19.58a2.13,2.13,0,0,0-1-.26c-.74,0-1,.44-1,.81s.33.76,1.08,1c.91.35,1.38.79,1.38,1.59S24.38,37,23.1,37a2.72,2.72,0,0,1-1.38-.35Z"/><path class="cls-1" d="M26.65,31.48v2.27h2.63V31.48H30V36.9h-.7V34.36H26.65V36.9H26V31.48Z"/><path class="cls-1" d="M31.89,31.48V36.9h-.7V31.48Z"/><path class="cls-1" d="M33.12,31.54a8.86,8.86,0,0,1,1.34-.1,2.22,2.22,0,0,1,1.52.45A1.45,1.45,0,0,1,36.45,33,1.57,1.57,0,0,1,36,34.18a2.25,2.25,0,0,1-1.65.59,2.55,2.55,0,0,1-.57,0V36.9h-.69Zm.69,2.62a2.45,2.45,0,0,0,.58.05c.85,0,1.36-.41,1.36-1.16S35.25,32,34.47,32a3.13,3.13,0,0,0-.66.06Z"/><path class="cls-1" d="M3.74,13.58a.36.36,0,0,0-.36-.36h-3a.36.36,0,0,0-.36.36.36.36,0,0,0,.36.36h3A.36.36,0,0,0,3.74,13.58Z"/><path class="cls-1" d="M38.93,21.59a4.7,4.7,0,0,0-4.7-4.7H33.9l-2.4-5.19a1.21,1.21,0,0,0-.25-.37.78.78,0,0,0-.68-.41H28.85l-.12-.9A1.05,1.05,0,0,0,27.67,9h-3.1A7.68,7.68,0,0,1,26,7.22H26a3.61,3.61,0,0,0,3.5-2.73h1a2.91,2.91,0,0,0-1.06-1.83A3.62,3.62,0,0,0,26,0h0A3.62,3.62,0,0,0,22.4,3.61a3.58,3.58,0,0,0,1.28,2.74,12.16,12.16,0,0,0-8,2.78,1.05,1.05,0,0,0-.49.9v.07a1.05,1.05,0,0,0,1.05,1.06H17.3A21.28,21.28,0,0,0,15,14.8H13.7a1.43,1.43,0,0,0,.08-.22L15.09,7a.6.6,0,0,0-.64-.71l-7.19,0A.9.9,0,0,0,6.38,7L5.06,14.53a.61.61,0,0,0,0,.27H3a.49.49,0,0,0-.48.48v.05a.49.49,0,0,0,.48.48h25.1a8.67,8.67,0,0,0-6.64-2s.74-1.21,1.62-2.59h1.47a.78.78,0,0,0-.19.51.77.77,0,0,0,.76.77h3.78a2,2,0,0,0,.11.38l1.54,3.32-.59.59H24.75a.32.32,0,0,0,0,.64h4.81a.27.27,0,0,1,.21.26v0a.29.29,0,0,1-.09.2H20.77a.45.45,0,0,0,0,.9H28l0,0h0a.29.29,0,0,1,.3.3v0a.3.3,0,0,1-.3.31H18.22a.45.45,0,1,0,0,.9h8.89a.46.46,0,0,1,.17.35h0a.44.44,0,0,1-.44.44l-10.6-.1a.51.51,0,0,0-.51.52v.13a.51.51,0,0,0,.51.51h9.27a.47.47,0,0,0,.17,0,.31.31,0,0,1,.22.29v0a.29.29,0,0,1-.15.25H14.9a4.24,4.24,0,0,1-.23.88,6.73,6.73,0,0,1-.32.73h4.1l0,0H28a2.78,2.78,0,0,0,2.88,3.44,6.26,6.26,0,0,0,5.64-3.92,3.49,3.49,0,0,0,.16-2.09h2.26C38.92,21.74,38.93,21.67,38.93,21.59Zm-5.16,2.25a2.16,2.16,0,0,1-1.94,1.35,1,1,0,0,1-.93-1.43,2.17,2.17,0,0,1,1.94-1.35A1,1,0,0,1,33.77,23.84Z"/><path class="cls-1" d="M34.32,15.45a.91.91,0,0,0,.23,0V12.58l-.23,0A1.36,1.36,0,0,0,33,13.91v.18A1.36,1.36,0,0,0,34.32,15.45Z"/><path class="cls-1" d="M19.08,18.79a.44.44,0,0,0,.44-.44h0a.44.44,0,0,0-.44-.44H15.79a.44.44,0,0,0-.44.44h0a.44.44,0,0,0,.44.44Z"/><path class="cls-1" d="M22.67,17.2a.27.27,0,0,0,.27-.27.28.28,0,0,0-.27-.28H21.28a.28.28,0,0,0-.27.28.27.27,0,0,0,.27.27Z"/><path class="cls-1" d="M3.07,11.56H4.46a.27.27,0,0,0,0-.54H3.07a.27.27,0,0,0,0,.54Z"/><path class="cls-1" d="M6,21.84a.27.27,0,0,0-.27-.27H4.3a.27.27,0,0,0,0,.54H5.69A.27.27,0,0,0,6,21.84Z"/><path class="cls-1" d="M16.31,6.68h3.11a.34.34,0,1,0,0-.67H16.31a.34.34,0,0,0,0,.67Z"/><path class="cls-1" d="M13.9,18.72a.34.34,0,0,0,.33-.34A.34.34,0,0,0,13.9,18h-3a.34.34,0,0,0-.34.34.34.34,0,0,0,.34.34Z"/><path class="cls-1" d="M6.71,20.57a.34.34,0,0,0-.34-.34h-3a.34.34,0,0,0,0,.68h3A.34.34,0,0,0,6.71,20.57Z"/><path class="cls-1" d="M11.33,19.48A6.29,6.29,0,0,0,5.69,23.4c-.81,2.23.4,4.08,2.7,4.14A6.26,6.26,0,0,0,14,23.63C14.84,21.4,13.63,19.55,11.33,19.48Zm-.24,4.15A2.16,2.16,0,0,1,9.15,25a1,1,0,0,1-.93-1.43,2.16,2.16,0,0,1,1.94-1.35A1,1,0,0,1,11.09,23.63Z"/></g></g></svg>