<svg xmlns="http://www.w3.org/2000/svg" viewBox="0 0 73.46 73.46"><defs><style>.cls-1{fill:#0cccbd;}.cls-2{fill:none;stroke:#0cccbd;stroke-miterlimit:10;stroke-width:0.5px;}</style></defs><title>Asset 15</title><g id="Layer_2" data-name="Layer 2"><g id="Layer_1-2" data-name="Layer 1"><path class="cls-1" d="M21.07,26.08a16.48,16.48,0,0,1-1-1.57A5.14,5.14,0,0,1,20,20.37a9.75,9.75,0,0,1,3.57-4.63,4.81,4.81,0,0,1,6.23.06,33.77,33.77,0,0,1,5.69,5.77c.46.56.9,1.14,1.41,1.77.3-.27.58-.51.84-.77a48.24,48.24,0,0,1,6.42-5.34,19.26,19.26,0,0,1,2.72-1.55A3.87,3.87,0,0,1,52,17.08a21.75,21.75,0,0,1,2.18,4,4,4,0,0,1-.9,4.19c-.16.22-.33.43-.58.75.32,0,.53.06.73.06h2.91a2.37,2.37,0,0,1,2.56,2.49c0,3.2,0,6.41,0,9.61a2.4,2.4,0,0,1-2.52,2.43,1.51,1.51,0,0,1-.3,0c-.57-.08-.74.15-.74.73,0,5,0,10.09,0,15.13A2.33,2.33,0,0,1,52.78,59H21.27a2.26,2.26,0,0,1-2.54-2.57c0-5,0-10,0-15,0-.84,0-.9-.86-.83a2.52,2.52,0,0,1-2.71-2.72c.09-3.1,0-6.21,0-9.32a2.3,2.3,0,0,1,2.51-2.5ZM25.18,28H17.82c-.51,0-.71.16-.71.68,0,3.09,0,6.17,0,9.26,0,.55.23.73.75.73H32.58c.49,0,.66-.16.65-.64,0-3.13,0-6.26,0-9.38,0-.54-.2-.66-.7-.66C30.09,28,27.63,28,25.18,28ZM40.9,28c0,.29,0,.48,0,.67,0,3.09,0,6.17,0,9.26,0,.63.2.75.78.75,4.8,0,9.61,0,14.42,0,.81,0,.92-.1.92-.92V28.91c0-.82-.08-.9-.94-.9H40.9Zm-6.74,14.9c0-.75,0-1.26,0-1.78s-.18-.6-.57-.51a1.38,1.38,0,0,0-.66.3Q27,46.7,21,52.51a1.49,1.49,0,0,0-.4.92c-.06,1,0,1.94,0,2.9,0,.25.14.66.28.69a1,1,0,0,0,.75-.26c3.72-3.6,7.4-7.24,11.14-10.81C33.78,45,34.54,44.11,34.16,42.91Zm19.26-2.17-.19-.07c-.16.15-.34.3-.5.46L48.78,45,40.25,53.3a1.12,1.12,0,0,0-.32.65c0,.91,0,1.82,0,2.73,0,.34.16.41.46.47a2,2,0,0,0,1.79-.81c3.34-3.25,6.64-6.54,10-9.75a3.3,3.3,0,0,0,1.25-3A26.68,26.68,0,0,1,53.42,40.74Zm-13.5,11,.19.07L51.44,40.76l-.1-.15c-1.52,0-3,0-4.56,0a1,1,0,0,0-.54.31c-1.53,1.49-3,3.08-4.62,4.44a4.28,4.28,0,0,0-1.72,4.19A15.7,15.7,0,0,1,39.92,51.74ZM23.07,57a3.45,3.45,0,0,0,.38.12c1.38,0,2.77,0,4.15,0a1.09,1.09,0,0,0,.67-.3C30.14,55,32,53.21,33.84,51.4a.79.79,0,0,0,.29-.49c0-1.46,0-2.92,0-4.38,0,0-.06-.05-.15-.13ZM20.7,51.19,31.45,40.72a1.63,1.63,0,0,0-.35-.11c-1.43,0-2.85,0-4.28,0a1.09,1.09,0,0,0-.6.31Q23.6,43.47,21,46a1.4,1.4,0,0,0-.37.87c-.05,1.21,0,2.41,0,3.62C20.62,50.7,20.66,50.86,20.7,51.19ZM43.12,57a2.06,2.06,0,0,0,.37.12c1.4,0,2.81,0,4.21,0a1,1,0,0,0,.61-.29c1.6-1.54,3.19-3.07,4.75-4.64a1.46,1.46,0,0,0,.35-.88c0-1.12,0-2.25,0-3.37,0-.25,0-.49,0-.73l-.15-.06C49.89,50.4,46.55,53.66,43.12,57Zm6.62-34.84a2.81,2.81,0,0,0,0-.41c-.17-1.76-2-3.52-4-2.05a37.09,37.09,0,0,0-2.86,2.46,2.68,2.68,0,0,0-.64,3,.81.81,0,0,0,.6.4,10.84,10.84,0,0,0,1.89-.09,23.82,23.82,0,0,0,3.12-.59A2.52,2.52,0,0,0,49.74,22.17ZM29.57,24.9a4.59,4.59,0,0,0,.83,0,.53.53,0,0,0,.38-.28,2.26,2.26,0,0,0-.31-2.44,29.61,29.61,0,0,0-2.93-2.57,2.29,2.29,0,0,0-1.43-.38A2.45,2.45,0,0,0,24,21.48a2.51,2.51,0,0,0,1.27,2.65A11.1,11.1,0,0,0,29.57,24.9ZM44.42,40.61H40.31c-.37,0-.4.24-.39.52v4.11l.14,0ZM30.07,57.12c1.13,0,2.45,0,3.77,0,.11,0,.3-.3.3-.46,0-1.13,0-2.25,0-3.38a1.48,1.48,0,0,0-.17-.43Zm-5.6-16.51c-1,0-2.12,0-3.26,0-.46,0-.6.18-.59.59,0,1,0,1.94,0,2.9a4,4,0,0,0,.14.63ZM50,57.08c.94,0,2,0,3.08,0,.11,0,.29-.35.3-.55,0-.71,0-1.42,0-2.13,0-.22,0-.44,0-.65l-.18-.07Z"/><path class="cls-1" d="M36.73,0A36.73,36.73,0,1,0,73.46,36.73,36.72,36.72,0,0,0,36.73,0Zm0,71.42A34.69,34.69,0,1,1,71.42,36.73,34.69,34.69,0,0,1,36.73,71.42Z"/><circle class="cls-2" cx="36.73" cy="36.73" r="32.39"/></g></g></svg>