<svg xmlns="http://www.w3.org/2000/svg" viewBox="0 0 28.78 28.78"><defs><style>.cls-1{fill:none;stroke:#757575;stroke-miterlimit:10;}.cls-2{fill:#757575;}</style></defs><title>Asset 20</title><g id="Layer_2" data-name="Layer 2"><g id="Layer_1-2" data-name="Layer 1"><circle class="cls-1" cx="14.39" cy="14.39" r="13.89"/><path class="cls-2" d="M14.73,10.26l-.08.1-1.36,1.41a.14.14,0,0,1-.22,0,5.77,5.77,0,0,0-1.88-.74,3.36,3.36,0,0,0-2.77.72,3.68,3.68,0,0,0-1.48,3.4,3.68,3.68,0,0,0,2.64,3.27A3.58,3.58,0,0,0,12.8,18a3.4,3.4,0,0,0,1.31-1.86v-.08H14l-3.07,0c-.22,0-.22,0-.22-.22,0-.57,0-1.14,0-1.71,0-.13,0-.18.17-.18h5.5c.13,0,.18,0,.18.16,0,.49,0,1,0,1.45a6.35,6.35,0,0,1-.5,2.06,5.26,5.26,0,0,1-3.69,3.09A6,6,0,0,1,7.54,20a5.91,5.91,0,0,1-2.88-4.31,6.11,6.11,0,0,1,10-5.51Z"/><path class="cls-2" d="M22,13.94H23.6c.09,0,.12,0,.12.11v1.54c0,.1,0,.11-.13.11H22a.86.86,0,0,1,0,.17v1.41c0,.13,0,.17-.17.17H20.4c-.13,0-.18,0-.18-.17,0-.47,0-.94,0-1.42,0-.12,0-.16-.16-.16-.47,0-.95,0-1.42,0-.12,0-.15,0-.15-.15V14.08c0-.11,0-.14.15-.14h1.43c.12,0,.15,0,.15-.16,0-.48,0-.95,0-1.43,0-.12,0-.16.15-.16h1.45c.12,0,.16,0,.16.16v1.59Z"/></g></g></svg>