<svg xmlns="http://www.w3.org/2000/svg" width="199.959" height="52.103" viewBox="0 0 199.959 52.103">
  <g id="Group_821" data-name="Group 821" transform="translate(-323.041 -130.259)">
    <g id="Group_483" data-name="Group 483">
      <g id="Group_482" data-name="Group 482">
        <g id="Group_480" data-name="Group 480">
          <path id="Path_758" data-name="Path 758" d="M448.081,155.8a5.657,5.657,0,1,1-11.313,0v-3.191a5.657,5.657,0,1,1,11.313,0Zm-5.656-13.913a10.688,10.688,0,0,0-10.654,10.722V155.8a10.655,10.655,0,1,0,21.309,0v-3.191a10.688,10.688,0,0,0-10.655-10.722" fill="#fff"/>
          <path id="Path_759" data-name="Path 759" d="M368.4,141.9a10.55,10.55,0,0,0-5.637,1.624v-1.494l0-7.878a12.15,12.15,0,0,0-.123-1.757,2.435,2.435,0,0,0-2.742-2.135h-2.161v22.359l0,10.021a12.047,12.047,0,0,0,.123,1.755,2.434,2.434,0,0,0,2.741,2.131h2.156v-14.35a5.644,5.644,0,0,1,11.274.443v10.021a11.763,11.763,0,0,0,.123,1.755,2.432,2.432,0,0,0,2.739,2.131h2.153l0-13.907A10.686,10.686,0,0,0,368.4,141.9" fill="#fff"/>
          <path id="Path_760" data-name="Path 760" d="M461.413,143.523v-1.494l0-7.878a12.15,12.15,0,0,0-.123-1.757,2.435,2.435,0,0,0-2.742-2.135H456.39v22.359l0,10.021a12.018,12.018,0,0,0,.122,1.755,2.436,2.436,0,0,0,2.742,2.131h2.156v-14.35" fill="#fff"/>
          <g id="Group_475" data-name="Group 475">
            <path id="Path_761" data-name="Path 761" d="M327.423,145.411h8.219v-8.82h-8.219a4.41,4.41,0,0,0,0,8.82" fill="#fff"/>
            <path id="Path_762" data-name="Path 762" d="M343.762,130.259H334a11.676,11.676,0,0,0-1.747.126,2.437,2.437,0,0,0-2.12,2.756V135.3l13.633.006v-.022a5.692,5.692,0,0,1,0,11.384H330.129v15.583a13.022,13.022,0,0,0,.137,1.929c.212,1.493,1.251,2.344,3.013,2.344h2.365V151.7h8.118a10.722,10.722,0,0,0,0-21.443" fill="#fff"/>
          </g>
          <g id="Group_476" data-name="Group 476">
            <path id="Path_763" data-name="Path 763" d="M511.551,153.284l-2.431-2.446,5.207-5.235a11.927,11.927,0,0,0,1.148-1.33,2.455,2.455,0,0,0-.438-3.46l-1.528-1.537-7.8,7.817v-5.064l0-7.878a11.87,11.87,0,0,0-.123-1.757,2.433,2.433,0,0,0-2.741-2.135h-2.161v23.025Z" fill="#fff"/>
            <path id="Path_764" data-name="Path 764" d="M500.686,155.007l0,7.632a12.192,12.192,0,0,0,.123,1.755,2.435,2.435,0,0,0,2.742,2.131h2.156V155.007Z" fill="#fff"/>
            <path id="Path_765" data-name="Path 765" d="M513.264,155.007h-7.1l3.184,3.2,1.05,1.056,5.535,5.573a11.872,11.872,0,0,0,1.322,1.154,2.42,2.42,0,0,0,3.439-.44l1.528-1.537Z" fill="#fff"/>
          </g>
          <path id="Path_766" data-name="Path 766" d="M417.8,141.9c-2.068,0-4.928.952-5.78,2.529a2.535,2.535,0,0,0-2.715-2.538h-2.162v10.728l0,10.021a12.047,12.047,0,0,0,.123,1.755,2.435,2.435,0,0,0,2.742,2.131h2.155v-14.35a5.645,5.645,0,0,1,11.275.443v10.021a11.349,11.349,0,0,0,.122,1.755,2.432,2.432,0,0,0,2.739,2.131h2.154l0-13.907A10.689,10.689,0,0,0,417.8,141.9" fill="#fff"/>
          <g id="Group_477" data-name="Group 477">
            <path id="Path_767" data-name="Path 767" d="M481.084,153.284v-1.109a5.645,5.645,0,0,1,11.275.443v.666h5.017v-.666A10.689,10.689,0,0,0,486.718,141.9c-2.068,0-4.928.952-5.78,2.529a2.535,2.535,0,0,0-2.716-2.538h-2.161v11.394Z" fill="#fff"/>
            <path id="Path_768" data-name="Path 768" d="M492.359,155.007v7.632a11.227,11.227,0,0,0,.122,1.755,2.432,2.432,0,0,0,2.739,2.131h2.153l0-11.518Z" fill="#fff"/>
            <path id="Path_769" data-name="Path 769" d="M476.062,155.007l0,7.632a12.043,12.043,0,0,0,.123,1.755,2.434,2.434,0,0,0,2.741,2.131h2.156V155.007Z" fill="#fff"/>
          </g>
          <path id="Path_770" data-name="Path 770" d="M393.02,141.89a10.689,10.689,0,0,0-10.657,10.722V155.8a10.688,10.688,0,0,0,10.657,10.722,6.821,6.821,0,0,0,3.064-.509,2.6,2.6,0,0,0,1.317-2.668v-2.23a9.484,9.484,0,0,1-4.381.658,5.856,5.856,0,0,1-5.657-5.973v-3.191a5.657,5.657,0,1,1,11.313,0V162.66a8.015,8.015,0,0,0,.13,1.746,2.551,2.551,0,0,0,2.724,2.119h2.145V152.612A10.69,10.69,0,0,0,393.02,141.89" fill="#fff"/>
          <g id="Group_479" data-name="Group 479">
            <g id="Group_478" data-name="Group 478">
              <path id="Path_771" data-name="Path 771" d="M472.752,162.519v-7.512h-7.966v7.512a3.983,3.983,0,1,0,7.966,0Z" fill="#fff"/>
              <path id="Path_772" data-name="Path 772" d="M472.752,153.284v-7.512a3.983,3.983,0,1,0-7.966,0v7.512Z" fill="#fff"/>
            </g>
          </g>
        </g>
        <g id="Group_481" data-name="Group 481">
          <path id="Path_773" data-name="Path 773" d="M429.349,180.555a6.787,6.787,0,0,1,.184-3.7,27.027,27.027,0,0,1,1.361-3.678c-.057.058-.355.328-.553.528a13.293,13.293,0,0,0-1.006,1.2,8.5,8.5,0,0,0-1.856,3.934v-.114l-.071.726c-.5-.014-.85-.227-.907-.612a5.872,5.872,0,0,1,.256-1.482c.2-.813.4-1.554.609-2.253q1.062-3.505,1.105-3.72c.1-.427.113-.67.014-.727-.057-.128-.893.214-2.125,1.554a6.158,6.158,0,0,0-1.29,2.138,5.962,5.962,0,0,0-.425,1.953,3.613,3.613,0,0,0,.156.855,1.507,1.507,0,0,1-1.034-.342,1.236,1.236,0,0,1-.326-.912,5.416,5.416,0,0,1,.779-2.623,9,9,0,0,1,2.168-2.566,3.454,3.454,0,0,1,1.757-.883,2.424,2.424,0,0,1,.935.5c.453.343.68.613.694.813a7.962,7.962,0,0,1-.666,2.238c-.255.67-.453,1.24-.609,1.7l-.2.584a15.348,15.348,0,0,1,1.77-2.508,16.9,16.9,0,0,1,1.658-1.768.985.985,0,0,1,.61.314.767.767,0,0,1,.269.485.737.737,0,0,1-.085.3,4.545,4.545,0,0,0-.27.484,22.435,22.435,0,0,0-1.246,2.809,12.106,12.106,0,0,0-.822,4.3,5.365,5.365,0,0,0,.156,1.211,2.241,2.241,0,0,0,.382.9c.057.071.043.114-.028.156a.171.171,0,0,1-.212-.029A3.234,3.234,0,0,1,429.349,180.555Z" fill="#fff"/>
          <path id="Path_774" data-name="Path 774" d="M432.635,174.911l.5-1.026a1,1,0,0,1,.779.214c.284.242.312.342.2.684-.085.242-.425.869-.822,1.7a5.763,5.763,0,0,0-.68,2.01c0,.171.028.256.1.256a3.935,3.935,0,0,0,1.3-1.012,6.956,6.956,0,0,0,.751-.912c.043-.043.085-.014.071.043a4.264,4.264,0,0,1-.609,1.325c-.567.841-1.006,1.269-1.332,1.269a1.392,1.392,0,0,1-.737-.314,1.084,1.084,0,0,1-.5-.955A10.733,10.733,0,0,1,432.635,174.911Zm1.275-2.565a2.933,2.933,0,0,1,.1-1.084.525.525,0,0,1,.51-.156c.439.042.808.3.822.569a1.668,1.668,0,0,1-.709,1.1.827.827,0,0,1-.736.157C433.8,172.9,433.91,172.588,433.91,172.346Z" fill="#fff"/>
          <path id="Path_775" data-name="Path 775" d="M436.318,177.562a2.731,2.731,0,0,0-.1.685c-.014.3.042.47.156.527.34.157,1.261-.214,2.224-.913a9.163,9.163,0,0,0,1.3-1.125c.015-.043.1-.014.1.028a4.919,4.919,0,0,1-.978,1.525c-.907.984-1.757,1.369-2.267,1.3a2.066,2.066,0,0,1-1.275-.869,2.714,2.714,0,0,1-.1-1.867,5.3,5.3,0,0,1,1.19-2.437,1.6,1.6,0,0,1,1.233-.7,1.7,1.7,0,0,1,.835.385,2.232,2.232,0,0,1,.638.655,1.6,1.6,0,0,1-.566,1.7A4.877,4.877,0,0,1,436.318,177.562Zm.156-.527a3.69,3.69,0,0,0,.6-.342,3.409,3.409,0,0,0,1.162-1.212c.255-.513.3-.769.141-.769a2.053,2.053,0,0,0-1.076.8A5.722,5.722,0,0,0,436.474,177.035Zm2.3-6.329a1.536,1.536,0,0,1,.638.143,1.34,1.34,0,0,1,.524.356,1.784,1.784,0,0,1,.085.984,3.246,3.246,0,0,1-.241,1.112c-.042.057-.283-.143-.354-.271-.014-.057.014-.172.014-.656a1.242,1.242,0,0,0-.113-.641c-.4.5-.695.841-.879,1.026a1.729,1.729,0,0,1-.623.385c-.468.142-1.247-.328-1.148-.4.043-.043.666-.514,1.049-.87A8.737,8.737,0,0,0,438.769,170.706Zm1.884-2.465c.071.085-.056.27-.056.969a3.436,3.436,0,0,0,.4,1.411c.028.057-.1.157-.213.128a1.816,1.816,0,0,1-.949-.684,1.185,1.185,0,0,1-.27-1.411A1.526,1.526,0,0,1,440.653,168.241Z" fill="#fff"/>
          <path id="Path_776" data-name="Path 776" d="M442.806,179.273a.151.151,0,0,1-.028.071c-.043.043-.156.057-.34.028a1.143,1.143,0,0,1-.567-.228c-.085-.071-.1-.284-.057-.67a9.64,9.64,0,0,1,.4-1.71c.113-.385.283-.827.283-.827-.155.157-.538.613-1.119,1.368a12.336,12.336,0,0,0-1.4,2.124c-.057.129-.3.043-.709-.242a.279.279,0,0,1-.113-.342,28.925,28.925,0,0,1,.921-3.221,13.074,13.074,0,0,1,.765-1.767,1.365,1.365,0,0,1,.779.284c.213.172.283.328.241.471a4.625,4.625,0,0,1-.255.542c-.142.285-.241.5-.312.655-.227.5-.425.984-.6,1.44s-.283.712-.326.784l2-2.808a12.393,12.393,0,0,1,1.1-1.468,2.021,2.021,0,0,1,.6.142c.3.129.411.286.354.485-.014.042-.495.926-.963,2.123-.142.371-.269.742-.383,1.126a14.024,14.024,0,0,1,1.587-2.066,7.2,7.2,0,0,1,.935-.955.885.885,0,0,1,.482.1c.326.185.482.356.482.541a12.952,12.952,0,0,1-.694,1.454,6.561,6.561,0,0,0-.567,1.754c-.043.27-.028.413.042.413a3.6,3.6,0,0,0,1.289-.984c.284-.313.567-.67.865-1.055.042-.042.057-.042.07.015v.071a5.293,5.293,0,0,1-.736,1.482c-.525.784-.963,1.169-1.346,1.169a1.806,1.806,0,0,1-.722-.256,1,1,0,0,1-.412-.941,5.1,5.1,0,0,1,.27-1.511l.184-.527a5.456,5.456,0,0,0-1.134,1.2A6.043,6.043,0,0,0,442.806,179.273Z" fill="#fff"/>
          <path id="Path_777" data-name="Path 777" d="M452.1,172.944c.468-1.283.708-1.924.708-1.938a1.267,1.267,0,0,1,.879.328c.255.228.269.57.042,1.04l-.283.6c.666,0,1.1-.015,1.3-.029.1.057-.028.342-.2.528a.944.944,0,0,1-.51.313,4.42,4.42,0,0,1-.978.057,25.986,25.986,0,0,0-1.473,4.019c-.142.556-.142.842-.057.842.255,0,.652-.257,1.2-.77a12.417,12.417,0,0,0,.992-1.055c.057-.057.156-.014.113.086a7.482,7.482,0,0,1-.991,1.624c-.482.614-.893.927-1.219.927a2.487,2.487,0,0,1-.906-.442.831.831,0,0,1-.255-.67,8.342,8.342,0,0,1,.453-2.066c.226-.713.51-1.554.864-2.524a4.7,4.7,0,0,1-1.034-.071c-.014-.028.014-.142.113-.328a1.118,1.118,0,0,1,.227-.37A2.407,2.407,0,0,1,452.1,172.944Z" fill="#fff"/>
          <path id="Path_778" data-name="Path 778" d="M454.762,174.911l.5-1.026a1,1,0,0,1,.779.214c.284.242.312.342.2.684-.085.242-.425.869-.822,1.7a5.762,5.762,0,0,0-.68,2.01c0,.171.028.256.1.256a3.935,3.935,0,0,0,1.3-1.012,6.871,6.871,0,0,0,.751-.912c.043-.043.085-.014.071.043a4.265,4.265,0,0,1-.609,1.325c-.567.841-1.006,1.269-1.332,1.269a1.392,1.392,0,0,1-.737-.314,1.083,1.083,0,0,1-.495-.955A10.752,10.752,0,0,1,454.762,174.911Zm1.275-2.565a2.958,2.958,0,0,1,.1-1.084.525.525,0,0,1,.51-.156c.44.042.808.3.822.569a1.671,1.671,0,0,1-.708,1.1.829.829,0,0,1-.737.157C455.924,172.9,456.037,172.588,456.037,172.346Z" fill="#fff"/>
          <path id="Path_779" data-name="Path 779" d="M458.218,174.141a.965.965,0,0,1,.836.186.582.582,0,0,1,.255.413,2.8,2.8,0,0,1-.311.841,5.9,5.9,0,0,0-.3.642l-.765,1.81c1.063-1.468,1.771-2.409,2.1-2.808.3-.357.765-.955.949-1.183a1.482,1.482,0,0,1,.184-.2,1.232,1.232,0,0,1,.553.114.613.613,0,0,1,.383.528,3.742,3.742,0,0,1-.51,1.069c-.171.313-.326.627-.468.954a5.129,5.129,0,0,0-.539,1.925c0,.242.043.356.128.356a3.89,3.89,0,0,0,1.275-.955c.5-.541.765-.927.85-1.012.043-.057.085-.014.071.043a5,5,0,0,1-.751,1.539q-.744,1.111-1.317,1.112a1.531,1.531,0,0,1-.709-.285,1.136,1.136,0,0,1-.552-1.012,5.463,5.463,0,0,1,.283-1.454c.1-.3.184-.57.283-.813-.169.172-.538.628-1.1,1.354a20.855,20.855,0,0,0-1.516,2.053c-.056.129-.3.043-.708-.242a.274.274,0,0,1-.113-.342c.269-.955.581-2.01.963-3.15C457.892,174.968,458.077,174.469,458.218,174.141Z" fill="#fff"/>
          <path id="Path_780" data-name="Path 780" d="M469.141,176.55a1.847,1.847,0,0,1-.865.285c-.184,0-.3-.057-.34-.157a.094.094,0,0,1,.043-.113,3.1,3.1,0,0,0,.978-1.027c.212-.356.283-.613.226-.77a.077.077,0,0,0-.085-.056c-.184,0-.453.185-.822.556a4.257,4.257,0,0,0-1.3,2.708c0,.527.142.684.482.684a3.474,3.474,0,0,0,1.87-.8,11.247,11.247,0,0,0,1.3-1.125.06.06,0,0,1,.1.028,4.776,4.776,0,0,1-.977,1.525,2.925,2.925,0,0,1-2,1.154,1.91,1.91,0,0,1-1.416-.769,1.78,1.78,0,0,1-.3-1.212,4.7,4.7,0,0,1,1.091-2.836,1.936,1.936,0,0,1,1.459-.884,1.329,1.329,0,0,1,.822.357,2.285,2.285,0,0,1,.581.641,1.154,1.154,0,0,1-.142,1.183A1.948,1.948,0,0,1,469.141,176.55Z" fill="#fff"/>
          <path id="Path_781" data-name="Path 781" d="M473.688,170.778a.8.8,0,0,1,.34.556,3.437,3.437,0,0,1-.3,1.012c-1.162,2.85-1.856,4.56-2.069,5.145.184-.271.6-.8,1.233-1.6s1.062-1.34,1.3-1.654c.2-.3.269-.4.51-.4a.89.89,0,0,1,.5.186c.184.128.283.256.283.385a3.641,3.641,0,0,1-.453,1.082,7.749,7.749,0,0,0-1.105,2.966c0,.284.056.427.156.427a3.875,3.875,0,0,0,1.289-1.055,8.344,8.344,0,0,0,.85-1.026c.014-.043.043-.043.057-.014a.1.1,0,0,1,.014.085,2.41,2.41,0,0,1-.255.656,9.977,9.977,0,0,1-.5.869c-.552.813-.992,1.226-1.332,1.226a1.825,1.825,0,0,1-.878-.413c-.382-.285-.482-.855-.312-1.7a8.1,8.1,0,0,1,.539-1.6q-.129.108-1.106,1.283a13.067,13.067,0,0,0-1.218,1.71c-.141.243-.241.527-.3.527-.284,0-.751-.241-.751-.527a18.681,18.681,0,0,1,.68-2.1l1.6-4.661c.212-.655.354-1.154.439-1.34.056-.171.085-.242.128-.256A.943.943,0,0,1,473.688,170.778Z" fill="#fff"/>
          <path id="Path_782" data-name="Path 782" d="M480.46,175.211a3.393,3.393,0,0,1,.212.413c.128.271.255.427.411.47a1.036,1.036,0,0,0,.85-.171c.057-.043.085-.014.071.057a.272.272,0,0,1-.057.171,1.5,1.5,0,0,1-1.487.585,5.022,5.022,0,0,1-.822,1.582c-.609.826-1.176,1.24-1.729,1.24a1.371,1.371,0,0,1-.666-.271,1.992,1.992,0,0,1-.609-.556,2.346,2.346,0,0,1-.042-1.8,5.669,5.669,0,0,1,1.261-2.409,2.366,2.366,0,0,1,1.743-.841,1.21,1.21,0,0,1,.906.5c.227.256.326.441.3.541a.064.064,0,0,1-.085.028,1.719,1.719,0,0,0-1.474.214,3.733,3.733,0,0,0-1.346,1.525,4,4,0,0,0-.51,1.768.859.859,0,0,0,.114.541c.17.171.708-.1,1.289-1.054a4.168,4.168,0,0,0,.637-1.582,1,1,0,0,0-.056-.443C479.27,175.538,480.346,175.011,480.46,175.211Z" fill="#fff"/>
          <path id="Path_783" data-name="Path 783" d="M485.276,176.009a5.716,5.716,0,0,0,1.034-1.625,1.967,1.967,0,0,1,.354-.841,1.419,1.419,0,0,1,.808.214c.3.2.312.541.071,1.011a2.854,2.854,0,0,0-.1,1.013,7.708,7.708,0,0,0,.1,1.125c.056.471.085.8.085.984a1.71,1.71,0,0,1-.482,1.326,2.011,2.011,0,0,1-1.5.456,2.252,2.252,0,0,1-.935-.485,1.258,1.258,0,0,1-.6-.812,1.9,1.9,0,0,1,.227-1.112c.2-.385.411-.57.637-.57.411,0,.95.541.893.656-.014.056-.269.156-.425.37a1.426,1.426,0,0,0-.354.955c0,.186.042.3.113.342a.916.916,0,0,0,.779-.071.734.734,0,0,0,.524-.713c0-.185-.042-.6-.113-1.211a9.254,9.254,0,0,1-.113-1.54.719.719,0,0,1-.425.385C485.46,176.009,485.262,176.051,485.276,176.009Z" fill="#fff"/>
          <path id="Path_784" data-name="Path 784" d="M493.648,174.726c-.339.669-.665,1.425-.991,2.238a4.938,4.938,0,0,0-.4,1.468c0,.47.128.456.666.042a5.228,5.228,0,0,0,.722-.641,8.356,8.356,0,0,0,.85-1.012c.043-.057.072-.057.072,0v.043a2.681,2.681,0,0,1-.256.67,7.176,7.176,0,0,1-.495.869,4.957,4.957,0,0,1-.624.741,1.018,1.018,0,0,1-.68.371,1.064,1.064,0,0,1-.708-.285,1.351,1.351,0,0,1-.553-1.041,4,4,0,0,1,.241-1.283,19.809,19.809,0,0,1-1.2,2.01c-.3.414-.539.613-.723.613a1.538,1.538,0,0,1-.765-.441,1.054,1.054,0,0,1-.142-.8,9.473,9.473,0,0,1,.6-2.48c.44-1.183.737-1.781.864-1.781a1.683,1.683,0,0,1,.681.2c.255.128.382.257.368.385s-.3.627-.708,1.482a13.32,13.32,0,0,0-.538,1.269,4.015,4.015,0,0,0-.3,1.14q.276-.063,1.36-1.668a16.273,16.273,0,0,0,1.473-2.579l.184-.414a1.168,1.168,0,0,1,.638.043c.057.014.128.028.213.043.34.085.552.085.637-.015a.91.91,0,0,0-.1-1.111c-.113-.1-.34.056-.694.47-.1.114-.156.029-.184-.256a1.078,1.078,0,0,1,.056-.67c.128-.129.341-.143.652-.044.127,0,.312.129.553.386a2,2,0,0,1,.481.855.958.958,0,0,1-.34,1.14,1.033,1.033,0,0,1-.694.071Zm-1.7-2.68a2.642,2.642,0,0,1-1.317.613.191.191,0,0,1-.227-.1c-.043-.057-.028-.128.071-.2a4.559,4.559,0,0,0,.906-1.183c.27-.513.355-.841.4-.9.057-.086.978.213.978.655Q492.756,171.426,491.948,172.046Z" fill="#fff"/>
          <path id="Path_785" data-name="Path 785" d="M497.558,176.55a1.848,1.848,0,0,1-.865.285c-.184,0-.3-.057-.34-.157a.094.094,0,0,1,.043-.113,3.1,3.1,0,0,0,.978-1.027c.212-.356.283-.613.226-.77a.077.077,0,0,0-.085-.056c-.184,0-.453.185-.822.556a4.257,4.257,0,0,0-1.3,2.708c0,.527.142.684.482.684a3.474,3.474,0,0,0,1.87-.8,11.251,11.251,0,0,0,1.3-1.125.06.06,0,0,1,.1.028,4.776,4.776,0,0,1-.977,1.525,2.925,2.925,0,0,1-2,1.154,1.913,1.913,0,0,1-1.417-.769,1.785,1.785,0,0,1-.3-1.212,4.7,4.7,0,0,1,1.091-2.836,1.936,1.936,0,0,1,1.459-.884,1.329,1.329,0,0,1,.822.357,2.284,2.284,0,0,1,.581.641,1.154,1.154,0,0,1-.142,1.183A1.948,1.948,0,0,1,497.558,176.55Z" fill="#fff"/>
          <path id="Path_786" data-name="Path 786" d="M505.561,170.336a.682.682,0,0,1,.326.527,1.858,1.858,0,0,1-.184.613c-.127.3-.354.855-.708,1.668s-.708,1.682-1.063,2.551a11.213,11.213,0,0,1,1.19-1.439c.482-.5.794-.756.949-.756s.341.143.582.428a1.82,1.82,0,0,1,.41.712,1.9,1.9,0,0,1-.637,1.54,4.233,4.233,0,0,1-1.686,1.012,4.045,4.045,0,0,0,.184,1.1c.1.357.2.542.283.542a3.742,3.742,0,0,0,1.375-1.012,7.275,7.275,0,0,0,.892-1.1c.014-.058.142-.015.128.042a6.241,6.241,0,0,1-.822,1.568c-.553.812-.978,1.211-1.275,1.211a2.68,2.68,0,0,1-1.176-.4,3.057,3.057,0,0,1-.779-2.009c-.128.27-.355.9-.681,1.867-.127.257-.07.414-.283.414a.775.775,0,0,1-.737-.357,44.313,44.313,0,0,1,1.432-4.618,39.822,39.822,0,0,1,1.672-4.348A1.072,1.072,0,0,1,505.561,170.336Zm-1.869,6.5a4.414,4.414,0,0,0,.58-.228,3.839,3.839,0,0,0,1.375-1.168q.489-.706.382-.813c-.043-.128-1.02.627-1.643,1.254A3.864,3.864,0,0,0,503.692,176.835Z" fill="#fff"/>
          <path id="Path_787" data-name="Path 787" d="M510.463,170.778a.809.809,0,0,1,.34.556,3.417,3.417,0,0,1-.3,1.012c-1.162,2.85-1.856,4.56-2.068,5.145.184-.271.6-.8,1.232-1.6s1.063-1.34,1.3-1.654c.2-.3.269-.4.51-.4a.892.892,0,0,1,.5.186c.184.128.283.256.283.385a3.641,3.641,0,0,1-.453,1.082,7.731,7.731,0,0,0-1.1,2.966c0,.284.056.427.156.427a3.875,3.875,0,0,0,1.289-1.055,8.345,8.345,0,0,0,.85-1.026c.014-.043.043-.043.056-.014a.092.092,0,0,1,.015.085,2.483,2.483,0,0,1-.255.656,9.961,9.961,0,0,1-.5.869c-.553.813-.992,1.226-1.332,1.226a1.825,1.825,0,0,1-.878-.413c-.383-.285-.482-.855-.312-1.7a8.159,8.159,0,0,1,.538-1.6q-.127.108-1.1,1.283a13.067,13.067,0,0,0-1.218,1.71c-.142.243-.241.527-.3.527-.283,0-.751-.241-.751-.527a18.824,18.824,0,0,1,.681-2.1l1.6-4.661c.213-.655.355-1.154.44-1.34.056-.171.085-.242.127-.256A.945.945,0,0,1,510.463,170.778Z" fill="#fff"/>
          <path id="Path_788" data-name="Path 788" d="M517.235,175.211a3.39,3.39,0,0,1,.212.413c.128.271.255.427.411.47a1.036,1.036,0,0,0,.85-.171c.057-.043.085-.014.071.057a.272.272,0,0,1-.057.171,1.5,1.5,0,0,1-1.487.585,5.022,5.022,0,0,1-.822,1.582c-.609.826-1.176,1.24-1.729,1.24a1.368,1.368,0,0,1-.665-.271,1.97,1.97,0,0,1-.609-.556,2.34,2.34,0,0,1-.043-1.8,5.67,5.67,0,0,1,1.261-2.409,2.366,2.366,0,0,1,1.743-.841,1.21,1.21,0,0,1,.906.5c.227.256.326.441.3.541a.064.064,0,0,1-.085.028,1.716,1.716,0,0,0-1.473.214,3.719,3.719,0,0,0-1.346,1.525,3.987,3.987,0,0,0-.51,1.768.861.861,0,0,0,.113.541c.17.171.708-.1,1.289-1.054a4.19,4.19,0,0,0,.638-1.582,1,1,0,0,0-.057-.443C516.045,175.538,517.122,175.011,517.235,175.211Zm-.142-2.666a9.1,9.1,0,0,0,.581-.77,2.6,2.6,0,0,0,.468-1.083c.056-.3.028-.456-.071-.456-.468,0-1.431.927-1.417.927-.057,0,.042-.314.113-.485a3.253,3.253,0,0,1,.539-.884.6.6,0,0,1,.439-.271,1.649,1.649,0,0,1,.864.4c.354.271.538.514.524.756a2.23,2.23,0,0,1-.963,1.454,3.912,3.912,0,0,1-.638.413,1.416,1.416,0,0,1-.524.228C516.937,172.773,516.966,172.7,517.093,172.545Z" fill="#fff"/>
          <path id="Path_789" data-name="Path 789" d="M519.317,177.562a2.736,2.736,0,0,0-.1.685c-.014.3.043.47.156.527.34.157,1.261-.214,2.225-.913a9.277,9.277,0,0,0,1.3-1.125c.014-.043.1-.014.1.028a4.893,4.893,0,0,1-.977,1.525c-.907.984-1.757,1.369-2.267,1.3a2.064,2.064,0,0,1-1.275-.869,2.718,2.718,0,0,1-.1-1.867,5.313,5.313,0,0,1,1.19-2.437,1.6,1.6,0,0,1,1.233-.7,1.7,1.7,0,0,1,.836.385,2.246,2.246,0,0,1,.638.655,1.6,1.6,0,0,1-.567,1.7A4.873,4.873,0,0,1,519.317,177.562Zm.155-.527a3.7,3.7,0,0,0,.6-.342,3.405,3.405,0,0,0,1.161-1.212c.255-.513.3-.769.142-.769a2.054,2.054,0,0,0-1.077.8A5.723,5.723,0,0,0,519.472,177.035Z" fill="#fff"/>
        </g>
      </g>
    </g>
  </g>
</svg>
