<svg xmlns="http://www.w3.org/2000/svg" width="37.048" height="52.692" viewBox="0 0 37.048 52.692">
  <path id="Path_334" data-name="Path 334" d="M370.052,1302.7c.868.347,2.373,1,2.373-.232,0-.521-.424-.559-.829-.7a7.386,7.386,0,0,1-3.686-2.933,12.332,12.332,0,0,1-1.949-7.448c0-6.194,8.529-7.313,8.529-13.507,0-2.373-1.486-3.068-1.486-3.724,0-.425.135-.425.56-.425,1.544,0,3.685,2.567,4.342,3.821a3.764,3.764,0,0,1,.463,2.142c0,1.351-.135,2.74-.135,4.11,0,5.21,6.155,3.821,6.155,1.312,0-1.158-.7-2.238-.7-3.357,0-.135,0-.232.135-.232.656,0,1.814,1.486,2.142,1.949a11.482,11.482,0,0,1,1.64,6.059c0,6.252-5.692,9.455-5.692,10.806,0,.192.56,1.485,2.335.366a19.158,19.158,0,0,0,10.246-17.328c0-6.483-1.679-11.133-6.194-15.938-.753-.791-3.165-3.261-4.342-3.261-1.582,0,1.39,3.589,1.39,6.02a2.248,2.248,0,0,1-2.374,2.374c-2.238,0-2.8-4.9-3.068-6.426-1.119-6.522-2.47-11.23-8.953-14.3-2.007-.965-7.043-2.277-7.043-.425,0,.464.521.792.888.985a9.315,9.315,0,0,1,3.782,7.371c0,8.9-11.134,17.019-11.134,26.281-.039,7.776,5.422,14.008,12.6,16.633Z" transform="translate(-357.452 -1250.5)" fill="#fa434e"/>
</svg>
