<svg xmlns="http://www.w3.org/2000/svg" width="37" height="37" viewBox="0 0 37 37">
  <g id="Group_170" data-name="Group 170" transform="translate(-359 -1721)">
    <circle id="Ellipse_45" data-name="Ellipse 45" cx="18.5" cy="18.5" r="18.5" transform="translate(359 1721)" fill="#fa434e"/>
    <path id="Path_339" data-name="Path 339" d="M389.274,1737.292l-4.827,4.7,1.141,6.645a1.461,1.461,0,0,1-2.118,1.539l-5.97-3.137-5.969,3.137a1.46,1.46,0,0,1-2.118-1.539l1.141-6.645-4.827-4.7a1.462,1.462,0,0,1,.808-2.493l6.672-.972,2.982-6.047a1.464,1.464,0,0,1,2.623,0l2.982,6.047,6.672.972A1.462,1.462,0,0,1,389.274,1737.292Z" fill="#fff"/>
  </g>
</svg>
