<svg xmlns="http://www.w3.org/2000/svg" viewBox="0 0 88.01 79.7"><defs><style>.cls-1,.cls-2{fill:none;stroke:#757575;stroke-miterlimit:10;}.cls-1{stroke-width:0.83px;}.cls-2{stroke-width:2.49px;}.cls-3{fill:#fff;}.cls-4{fill:#757575;}</style></defs><title>Asset 39</title><g id="Layer_2" data-name="Layer 2"><g id="Layer_1-2" data-name="Layer 1"><circle class="cls-1" cx="39.91" cy="39.64" r="35.71"/><circle class="cls-2" cx="39.85" cy="39.85" r="38.6"/><rect class="cls-3" x="69.01" y="31.76" width="19" height="23"/><path class="cls-4" d="M13.25,35.05h-.08L9,37.3l-.63-2.47L13.62,32h2.76V56H13.25Z"/><path class="cls-4" d="M41.06,43.75c0,8.15-3,12.65-8.34,12.65C28,56.4,24.87,52,24.8,44.09s3.46-12.47,8.33-12.47C38.18,31.62,41.06,36.12,41.06,43.75Zm-13,.37c0,6.24,1.92,9.78,4.87,9.78,3.32,0,4.9-3.88,4.9-10,0-5.9-1.51-9.77-4.86-9.77C30.11,34.13,28,37.59,28,44.12Z"/><path class="cls-4" d="M60,43.75c0,8.15-3,12.65-8.33,12.65C47,56.4,43.79,52,43.72,44.09s3.47-12.47,8.33-12.47C57.11,31.62,60,36.12,60,43.75Zm-13,.37c0,6.24,1.92,9.78,4.87,9.78,3.32,0,4.91-3.88,4.91-10,0-5.9-1.51-9.77-4.87-9.77C49,34.13,47,37.59,47,44.12Z"/><path class="cls-4" d="M75.16,41.45c0,2.53-1.33,3.79-2.88,3.79s-2.79-1.2-2.81-3.62,1.32-3.75,2.9-3.75S75.16,39.16,75.16,41.45Zm-4.39.11c0,1.54.53,2.7,1.55,2.7s1.55-1.15,1.55-2.73-.43-2.68-1.55-2.68S70.77,40.05,70.77,41.56Zm1.4,8.72,7-12.41h1L73.2,50.28ZM83,46.42c0,2.53-1.33,3.78-2.86,3.78S77.32,49,77.3,46.61s1.31-3.77,2.9-3.77S83,44.13,83,46.42Zm-4.39.11c0,1.53.57,2.7,1.57,2.7s1.55-1.15,1.55-2.74-.43-2.67-1.55-2.67S78.58,45,78.58,46.53Z"/></g></g></svg>