<svg xmlns="http://www.w3.org/2000/svg" viewBox="0 0 86.07 75.34"><defs><style>.cls-1{fill:#0cccbd;}.cls-2{fill:#fff;}</style></defs><title>Asset 11</title><g id="Layer_2" data-name="Layer 2"><g id="Layer_1-2" data-name="Layer 1"><path class="cls-1" d="M37.67,0A37.67,37.67,0,1,0,75.34,37.67,37.68,37.68,0,0,0,37.67,0Zm0,73.25A35.58,35.58,0,1,1,73.25,37.67,35.58,35.58,0,0,1,37.67,73.25Z"/><path class="cls-1" d="M37.67,71.14A33.47,33.47,0,1,1,71.14,37.67,33.5,33.5,0,0,1,37.67,71.14Zm0-66.44a33,33,0,1,0,33,33A33,33,0,0,0,37.67,4.7Z"/><path class="cls-1" d="M13.5,31.75h-.06L9.57,33.83,9,31.54l4.86-2.6h2.56V51.18H13.5Z"/><path class="cls-1" d="M39.3,39.82c0,7.56-2.8,11.73-7.73,11.73-4.34,0-7.29-4.07-7.35-11.42S27.43,28.56,32,28.56C36.63,28.56,39.3,32.74,39.3,39.82Zm-12.07.34c0,5.78,1.77,9.07,4.51,9.07,3.08,0,4.55-3.59,4.55-9.27,0-5.48-1.4-9.07-4.51-9.07C29.14,30.89,27.23,34.11,27.23,40.16Z"/><path class="cls-1" d="M56.86,39.82c0,7.56-2.81,11.73-7.74,11.73-4.34,0-7.28-4.07-7.35-11.42S45,28.56,49.5,28.56C54.19,28.56,56.86,32.74,56.86,39.82Zm-12.08.34c0,5.78,1.78,9.07,4.52,9.07,3.07,0,4.55-3.59,4.55-9.27,0-5.48-1.41-9.07-4.52-9.07C46.7,30.89,44.78,34.11,44.78,40.16Z"/><rect class="cls-2" x="64.09" y="29.56" width="21.97" height="19.88"/><path class="cls-1" d="M72.06,37.74c0,2.63-1.38,3.94-3,3.94s-2.9-1.25-2.92-3.77,1.37-3.9,3-3.9S72.06,35.36,72.06,37.74Zm-4.57.12c0,1.59.56,2.8,1.61,2.8s1.62-1.19,1.62-2.84S70.27,35,69.1,35,67.49,36.28,67.49,37.86ZM69,46.93,76.29,34h1.08L70,46.93Zm11.25-4c0,2.64-1.39,3.94-3,3.94s-2.91-1.25-2.93-3.75,1.37-3.92,3-3.92S80.2,40.53,80.2,42.91ZM75.62,43c0,1.59.6,2.8,1.63,2.8s1.62-1.19,1.62-2.84-.44-2.79-1.62-2.79S75.62,41.45,75.62,43Z"/></g></g></svg>