<svg xmlns="http://www.w3.org/2000/svg" viewBox="0 0 194.04 50.56"><defs><style>.cls-1{fill:#0c9ead;}.cls-2{fill:#ea4036;}</style></defs><title>Asset 22</title><g id="Layer_2" data-name="Layer 2"><g id="Layer_1-2" data-name="Layer 1"><path class="cls-1" d="M121.34,24.79a5.49,5.49,0,1,1-11,0v-3.1a5.49,5.49,0,1,1,11,0Zm-5.49-13.5a10.37,10.37,0,0,0-10.34,10.4v3.1a10.34,10.34,0,1,0,20.68,0v-3.1a10.37,10.37,0,0,0-10.34-10.4"/><path class="cls-1" d="M44,11.3a10.2,10.2,0,0,0-5.47,1.57V3.78a12,12,0,0,0-.12-1.71A2.36,2.36,0,0,0,35.77,0h-2.1V31.42a11.67,11.67,0,0,0,.11,1.7,2.37,2.37,0,0,0,2.67,2.07h2.09V21.27a5.48,5.48,0,0,1,10.94.43v9.72a10.6,10.6,0,0,0,.12,1.7,2.35,2.35,0,0,0,2.65,2.07h2.09V21.7A10.37,10.37,0,0,0,44,11.3"/><path class="cls-2" d="M134.28,12.87V3.78a12,12,0,0,0-.12-1.71A2.36,2.36,0,0,0,131.5,0h-2.1V31.42a11.92,11.92,0,0,0,.12,1.7,2.36,2.36,0,0,0,2.66,2.07h2.1V21.27"/><path class="cls-2" d="M4.25,14.7h8V6.14h-8a4.28,4.28,0,0,0,0,8.56"/><path class="cls-1" d="M20.11,0H10.63A11.71,11.71,0,0,0,8.94.12,2.37,2.37,0,0,0,6.88,2.8V4.9H20.11v0a5.53,5.53,0,0,1,0,11.05H6.88V31.05A11.68,11.68,0,0,0,7,32.92,2.6,2.6,0,0,0,9.93,35.2h2.3V20.81h7.88A10.41,10.41,0,0,0,20.11,0"/><path class="cls-2" d="M182.93,22.34,180.57,20l5.05-5.08a11.1,11.1,0,0,0,1.12-1.29,2.39,2.39,0,0,0-.43-3.36l-1.48-1.49-7.57,7.59V3.78a10.71,10.71,0,0,0-.12-1.71A2.35,2.35,0,0,0,174.48,0h-2.09V22.34Z"/><path class="cls-2" d="M172.39,24v7.4a11.92,11.92,0,0,0,.12,1.7,2.36,2.36,0,0,0,2.66,2.07h2.09V24Z"/><path class="cls-2" d="M184.59,24H177.7l3.09,3.1,1,1,5.37,5.41a13,13,0,0,0,1.28,1.12,2.35,2.35,0,0,0,3.34-.43l1.48-1.49Z"/><path class="cls-1" d="M92,11.3c-2,0-4.78.92-5.61,2.45a2.46,2.46,0,0,0-2.64-2.46H81.62V31.42a11.92,11.92,0,0,0,.12,1.7,2.36,2.36,0,0,0,2.66,2.07h2.09V21.27a5.48,5.48,0,0,1,10.94.43v9.72a11.92,11.92,0,0,0,.12,1.7,2.36,2.36,0,0,0,2.66,2.07h2.09V21.7A10.37,10.37,0,0,0,92,11.3"/><path class="cls-2" d="M153.36,22.34V21.27a5.48,5.48,0,0,1,10.95.43v.64h4.86V21.7a10.37,10.37,0,0,0-10.34-10.4c-2,0-4.78.92-5.61,2.45a2.45,2.45,0,0,0-2.63-2.46h-2.1V22.34Z"/><path class="cls-2" d="M164.31,24v7.4a10.4,10.4,0,0,0,.11,1.7,2.36,2.36,0,0,0,2.66,2.07h2.09V24Z"/><path class="cls-2" d="M148.49,24v7.4a11.92,11.92,0,0,0,.12,1.7,2.36,2.36,0,0,0,2.66,2.07h2.09V24Z"/><path class="cls-1" d="M67.91,11.29a10.37,10.37,0,0,0-10.34,10.4v3.1a10.36,10.36,0,0,0,10.34,10.4,6.67,6.67,0,0,0,3-.49,2.53,2.53,0,0,0,1.28-2.59V30a9.22,9.22,0,0,1-4.25.63,5.67,5.67,0,0,1-5.49-5.79v-3.1a5.49,5.49,0,1,1,11,0v9.75a7.53,7.53,0,0,0,.12,1.7,2.48,2.48,0,0,0,2.65,2h2.08V21.69a10.37,10.37,0,0,0-10.34-10.4"/><path class="cls-1" d="M145.28,31.31V24h-7.73v7.29a3.87,3.87,0,1,0,7.73,0Z"/><path class="cls-2" d="M145.28,22.34V15.05a3.87,3.87,0,1,0-7.73,0v7.29Z"/><path class="cls-1" d="M103.16,48.81a6.58,6.58,0,0,1,.18-3.6,25.84,25.84,0,0,1,1.32-3.57l-.54.52a11.17,11.17,0,0,0-1,1.16,8.11,8.11,0,0,0-1.8,3.81V47l-.07.71c-.48,0-.83-.22-.88-.6a5.23,5.23,0,0,1,.25-1.43c.19-.79.38-1.51.59-2.19.68-2.27,1-3.47,1.07-3.61.1-.41.11-.65,0-.71s-.86.21-2.06,1.51A6.12,6.12,0,0,0,99,42.78a5.61,5.61,0,0,0-.41,1.89,3.38,3.38,0,0,0,.15.83,1.46,1.46,0,0,1-1-.33,1.23,1.23,0,0,1-.31-.89,5.34,5.34,0,0,1,.75-2.54,8.79,8.79,0,0,1,2.11-2.49,3.31,3.31,0,0,1,1.7-.86,2.35,2.35,0,0,1,.91.49c.44.33.66.59.67.79a7.48,7.48,0,0,1-.64,2.17c-.25.65-.44,1.2-.59,1.64l-.2.57a14.85,14.85,0,0,1,1.72-2.43,16.59,16.59,0,0,1,1.61-1.72.91.91,0,0,1,.59.3.75.75,0,0,1,.26.47.79.79,0,0,1-.08.3,4.48,4.48,0,0,0-.26.47,20.92,20.92,0,0,0-1.21,2.72,11.68,11.68,0,0,0-.8,4.18,5.52,5.52,0,0,0,.15,1.17,2.23,2.23,0,0,0,.37.87c.06.07.05.12,0,.16a.18.18,0,0,1-.21,0A3.19,3.19,0,0,1,103.16,48.81Z"/><path class="cls-1" d="M106.35,43.33l.48-1a1,1,0,0,1,.76.21c.27.24.3.33.19.67s-.41.84-.8,1.64a5.65,5.65,0,0,0-.66,1.95c0,.17,0,.25.1.25a3.77,3.77,0,0,0,1.26-1,5.87,5.87,0,0,0,.73-.89s.08,0,.07,0a4.18,4.18,0,0,1-.59,1.28q-.83,1.23-1.29,1.23a1.33,1.33,0,0,1-.72-.3,1.07,1.07,0,0,1-.48-.93A10.54,10.54,0,0,1,106.35,43.33Zm1.24-2.49a2.88,2.88,0,0,1,.09-1.05.52.52,0,0,1,.5-.15c.42,0,.78.29.8.55a1.63,1.63,0,0,1-.69,1.07.81.81,0,0,1-.72.15C107.48,41.38,107.59,41.08,107.59,40.84Z"/><path class="cls-1" d="M109.92,45.9a2.63,2.63,0,0,0-.09.67c0,.29,0,.45.15.51.33.15,1.22-.21,2.16-.89a8,8,0,0,0,1.26-1.09s.1,0,.1,0a4.94,4.94,0,0,1-1,1.48c-.88,1-1.71,1.33-2.2,1.26a2.06,2.06,0,0,1-1.24-.85,2.63,2.63,0,0,1-.09-1.81,5.07,5.07,0,0,1,1.15-2.36,1.57,1.57,0,0,1,1.2-.68,1.66,1.66,0,0,1,.81.37,2.39,2.39,0,0,1,.62.64,1.55,1.55,0,0,1-.55,1.64A4.61,4.61,0,0,1,109.92,45.9Zm.15-.51a3.32,3.32,0,0,0,.58-.33,3.24,3.24,0,0,0,1.13-1.18c.25-.49.29-.74.14-.74a2,2,0,0,0-1,.77A6.06,6.06,0,0,0,110.07,45.39Zm2.23-6.14a1.5,1.5,0,0,1,.62.14,1.36,1.36,0,0,1,.51.34,1.73,1.73,0,0,1,.08,1,3.25,3.25,0,0,1-.23,1.08s-.28-.14-.35-.27,0-.16,0-.63,0-.55-.11-.62c-.39.48-.68.81-.85,1a1.76,1.76,0,0,1-.61.38c-.45.13-1.21-.32-1.11-.39s.64-.5,1-.85A8.14,8.14,0,0,0,112.3,39.25Zm1.83-2.39c.07.08,0,.26,0,.94a3.27,3.27,0,0,0,.38,1.37s-.1.15-.21.12a1.73,1.73,0,0,1-.92-.66,1.16,1.16,0,0,1-.26-1.37A1.49,1.49,0,0,1,114.13,36.86Z"/><path class="cls-1" d="M116.22,47.56s0,.06,0,.07-.15.06-.33,0a1.16,1.16,0,0,1-.55-.22c-.08-.07-.09-.28,0-.65a9.24,9.24,0,0,1,.38-1.66c.11-.37.28-.8.28-.8-.15.15-.52.59-1.09,1.32a11.83,11.83,0,0,0-1.36,2.07c0,.12-.29,0-.69-.24a.27.27,0,0,1-.11-.33,29.37,29.37,0,0,1,.9-3.13,11.83,11.83,0,0,1,.74-1.71,1.29,1.29,0,0,1,.75.27c.21.17.28.32.24.46a5.73,5.73,0,0,1-.25.53c-.14.27-.23.48-.3.63-.22.49-.41,1-.58,1.4s-.27.69-.31.76l1.93-2.73a11.64,11.64,0,0,1,1.08-1.42,2,2,0,0,1,.57.14c.29.12.4.28.35.47a22.26,22.26,0,0,0-.94,2.06c-.14.36-.26.72-.37,1.09A13.48,13.48,0,0,1,118,44a7.16,7.16,0,0,1,.91-.93.9.9,0,0,1,.47.1c.31.18.46.34.46.52a11.37,11.37,0,0,1-.67,1.41,6.5,6.5,0,0,0-.55,1.7c0,.27,0,.41,0,.41a3.41,3.41,0,0,0,1.25-1c.28-.3.55-.65.84-1,0,0,.06,0,.07,0v.07a4.92,4.92,0,0,1-.72,1.44c-.5.76-.93,1.13-1.3,1.13a1.68,1.68,0,0,1-.7-.25,1,1,0,0,1-.4-.91,4.85,4.85,0,0,1,.26-1.46l.18-.52a5.51,5.51,0,0,0-1.1,1.17A5.75,5.75,0,0,0,116.22,47.56Z"/><path class="cls-1" d="M125.24,41.42l.68-1.88a1.24,1.24,0,0,1,.86.32c.24.22.26.55,0,1l-.28.58c.65,0,1.08,0,1.27,0s0,.33-.19.51a.93.93,0,0,1-.5.31,4.54,4.54,0,0,1-1,0,26.43,26.43,0,0,0-1.43,3.9c-.13.54-.13.82,0,.82q.36,0,1.17-.75c.35-.3.94-1,1-1s.15,0,.11.08a7.34,7.34,0,0,1-1,1.58c-.47.59-.87.9-1.19.9a2.52,2.52,0,0,1-.88-.43.82.82,0,0,1-.24-.65,8.06,8.06,0,0,1,.44-2c.22-.69.49-1.5.83-2.44a6.09,6.09,0,0,1-1-.07.72.72,0,0,1,.11-.32,1,1,0,0,1,.22-.36A2.31,2.31,0,0,1,125.24,41.42Z"/><path class="cls-1" d="M127.82,43.33l.48-1a1,1,0,0,1,.76.21c.27.24.3.33.19.67s-.41.84-.8,1.64a5.65,5.65,0,0,0-.66,1.95c0,.17,0,.25.1.25a3.88,3.88,0,0,0,1.27-1,5.68,5.68,0,0,0,.72-.89c.05,0,.09,0,.07,0a4.18,4.18,0,0,1-.59,1.28c-.55.82-1,1.23-1.29,1.23a1.33,1.33,0,0,1-.72-.3,1.07,1.07,0,0,1-.48-.93A10.54,10.54,0,0,1,127.82,43.33Zm1.24-2.49a2.77,2.77,0,0,1,.1-1.05.5.5,0,0,1,.49-.15c.43,0,.78.29.8.55a1.63,1.63,0,0,1-.69,1.07.79.79,0,0,1-.71.15C129,41.38,129.06,41.08,129.06,40.84Z"/><path class="cls-1" d="M131.18,42.58a1,1,0,0,1,.81.18.58.58,0,0,1,.24.4,2.61,2.61,0,0,1-.3.82c-.12.24-.22.44-.29.62l-.74,1.76c1-1.42,1.72-2.34,2-2.73l.92-1.14a1.41,1.41,0,0,1,.18-.2,1.16,1.16,0,0,1,.53.11.6.6,0,0,1,.37.52,3.63,3.63,0,0,1-.49,1c-.17.31-.32.61-.46.93a5,5,0,0,0-.52,1.87c0,.23,0,.34.13.34a3.82,3.82,0,0,0,1.23-.92c.48-.53.75-.9.83-1s.08,0,.07,0a5,5,0,0,1-.73,1.49c-.48.72-.91,1.08-1.28,1.08a1.49,1.49,0,0,1-.69-.28,1.08,1.08,0,0,1-.53-1,5.14,5.14,0,0,1,.27-1.41c.1-.29.18-.55.28-.79-.17.17-.53.61-1.08,1.31a20,20,0,0,0-1.47,2c-.05.12-.29,0-.69-.24a.25.25,0,0,1-.1-.33c.26-.93.56-1.95.93-3.06C130.86,43.39,131,42.9,131.18,42.58Z"/><path class="cls-1" d="M141.77,44.92a1.77,1.77,0,0,1-.83.28c-.18,0-.29-.06-.33-.15a.08.08,0,0,1,0-.11,3.15,3.15,0,0,0,.95-1,1.08,1.08,0,0,0,.22-.75.09.09,0,0,0-.09,0c-.18,0-.44.18-.79.54a4.12,4.12,0,0,0-1.27,2.62c0,.52.14.67.47.67a3.31,3.31,0,0,0,1.81-.78,10.81,10.81,0,0,0,1.27-1.09.05.05,0,0,1,.09,0,4.73,4.73,0,0,1-.94,1.48,2.86,2.86,0,0,1-1.94,1.12,1.85,1.85,0,0,1-1.38-.75,1.76,1.76,0,0,1-.29-1.17,4.62,4.62,0,0,1,1.06-2.76,1.89,1.89,0,0,1,1.42-.85,1.31,1.31,0,0,1,.8.34,2.46,2.46,0,0,1,.56.62,1.12,1.12,0,0,1-.14,1.15A1.91,1.91,0,0,1,141.77,44.92Z"/><path class="cls-1" d="M146.19,39.32a.77.77,0,0,1,.33.54,3.38,3.38,0,0,1-.29,1q-1.69,4.15-2,5c.18-.26.58-.77,1.2-1.55s1-1.3,1.26-1.6.26-.39.5-.39a.9.9,0,0,1,.48.18c.18.13.27.25.27.38a3.58,3.58,0,0,1-.44,1,7.59,7.59,0,0,0-1.07,2.87c0,.28.06.42.15.42a3.66,3.66,0,0,0,1.25-1,7.69,7.69,0,0,0,.83-1s0,0,0,0a.08.08,0,0,1,0,.08,2.86,2.86,0,0,1-.25.64c-.15.3-.32.58-.48.84-.54.79-1,1.19-1.29,1.19a1.78,1.78,0,0,1-.86-.4c-.37-.28-.46-.83-.3-1.65a7.79,7.79,0,0,1,.52-1.55c-.08.07-.44.49-1.07,1.25a13.25,13.25,0,0,0-1.18,1.66c-.14.23-.23.51-.29.51-.27,0-.73-.24-.73-.51a18.53,18.53,0,0,1,.66-2L145,40.66c.2-.64.34-1.12.42-1.3s.08-.23.13-.25A.9.9,0,0,1,146.19,39.32Z"/><path class="cls-1" d="M152.76,43.62a3.93,3.93,0,0,1,.2.4c.13.26.25.42.4.46a1,1,0,0,0,.83-.17c.05,0,.08,0,.07.06a.27.27,0,0,1-.06.16,1.44,1.44,0,0,1-1.44.57,5.07,5.07,0,0,1-.8,1.54c-.59.8-1.14,1.2-1.68,1.2a1.28,1.28,0,0,1-.64-.26,2,2,0,0,1-.59-.54,2.25,2.25,0,0,1,0-1.75A5.41,5.41,0,0,1,150.23,43a2.3,2.3,0,0,1,1.69-.82,1.16,1.16,0,0,1,.88.49c.22.24.32.42.29.52a.06.06,0,0,1-.08,0,1.67,1.67,0,0,0-1.43.21,3.59,3.59,0,0,0-1.31,1.48,3.84,3.84,0,0,0-.49,1.71.84.84,0,0,0,.11.53c.16.16.68-.1,1.25-1a4.2,4.2,0,0,0,.62-1.53,1,1,0,0,0-.06-.43C151.6,43.94,152.65,43.43,152.76,43.62Z"/><path class="cls-1" d="M157.43,44.4a5.53,5.53,0,0,0,1-1.58,1.87,1.87,0,0,1,.34-.82,1.33,1.33,0,0,1,.78.21c.29.19.31.53.07,1a2.83,2.83,0,0,0-.09,1,7.26,7.26,0,0,0,.09,1.1,7.79,7.79,0,0,1,.08.95,1.68,1.68,0,0,1-.46,1.29,2,2,0,0,1-1.46.44,2.13,2.13,0,0,1-.91-.47,1.23,1.23,0,0,1-.58-.79,1.9,1.9,0,0,1,.22-1.08c.2-.37.4-.55.62-.55.4,0,.92.52.87.64s-.26.15-.41.36a1.34,1.34,0,0,0-.35.92c0,.18,0,.29.11.33a.91.91,0,0,0,.76-.06.73.73,0,0,0,.51-.7c0-.18,0-.58-.11-1.17a8.78,8.78,0,0,1-.11-1.5.73.73,0,0,1-.41.38C157.61,44.4,157.42,44.44,157.43,44.4Z"/><path class="cls-1" d="M165.56,43.15c-.33.65-.65,1.38-1,2.17a4.75,4.75,0,0,0-.38,1.43c0,.45.12.44.65,0a6.06,6.06,0,0,0,.7-.62,8,8,0,0,0,.82-1s.07,0,.07,0v0a2.58,2.58,0,0,1-.25.65,6.62,6.62,0,0,1-.48.84,4.87,4.87,0,0,1-.6.72,1,1,0,0,1-.66.36,1,1,0,0,1-.69-.28,1.29,1.29,0,0,1-.54-1,3.88,3.88,0,0,1,.24-1.24,21.61,21.61,0,0,1-1.17,1.95c-.29.4-.52.59-.7.59a1.44,1.44,0,0,1-.74-.43,1,1,0,0,1-.14-.77,9.32,9.32,0,0,1,.57-2.41c.43-1.15.72-1.73.84-1.73a1.56,1.56,0,0,1,.66.2c.25.12.38.25.36.37s-.29.61-.69,1.44c-.2.41-.37.83-.52,1.23a4.05,4.05,0,0,0-.29,1.11A5.59,5.59,0,0,0,163,45.2a15.54,15.54,0,0,0,1.43-2.51l.18-.4a1.27,1.27,0,0,1,.62,0l.21.05c.33.08.53.08.61,0a.88.88,0,0,0-.09-1.08c-.11-.09-.33.06-.68.46-.09.11-.15,0-.17-.25a1,1,0,0,1,0-.65c.12-.12.33-.14.63,0,.13,0,.31.12.54.37a2.1,2.1,0,0,1,.47.83,1,1,0,0,1-.33,1.11,1,1,0,0,1-.68.07Zm-1.65-2.6a2.7,2.7,0,0,1-1.28.6.2.2,0,0,1-.22-.1c0-.06,0-.13.07-.19a4.77,4.77,0,0,0,.88-1.15c.26-.5.34-.82.38-.87s.95.2.95.63S164.43,40.15,163.91,40.55Z"/><path class="cls-1" d="M169.35,44.92a1.8,1.8,0,0,1-.84.28c-.18,0-.29-.06-.33-.15a.09.09,0,0,1,0-.11,3,3,0,0,0,.95-1c.21-.35.28-.6.22-.75s0,0-.08,0-.44.18-.8.54a4.15,4.15,0,0,0-1.26,2.62c0,.52.13.67.46.67a3.34,3.34,0,0,0,1.82-.78,9.6,9.6,0,0,0,1.26-1.09c.05,0,.09,0,.1,0a4.63,4.63,0,0,1-.95,1.48A2.86,2.86,0,0,1,168,47.73a1.83,1.83,0,0,1-1.37-.75,1.71,1.71,0,0,1-.29-1.17,4.56,4.56,0,0,1,1.06-2.76,1.88,1.88,0,0,1,1.41-.85,1.31,1.31,0,0,1,.8.34,2.34,2.34,0,0,1,.57.62,1.15,1.15,0,0,1-.14,1.15A1.91,1.91,0,0,1,169.35,44.92Z"/><path class="cls-1" d="M177.12,38.89a.67.67,0,0,1,.31.51,1.85,1.85,0,0,1-.17.6c-.13.29-.35.83-.69,1.62s-.69,1.63-1,2.47a11,11,0,0,1,1.15-1.4c.47-.48.77-.73.92-.73s.33.14.57.42a1.71,1.71,0,0,1,.39.69,1.85,1.85,0,0,1-.61,1.49,4.09,4.09,0,0,1-1.64,1,3.81,3.81,0,0,0,.18,1.07c.1.34.19.52.27.52a3.65,3.65,0,0,0,1.34-1,6.65,6.65,0,0,0,.86-1.06c0-.06.14,0,.13,0a6.25,6.25,0,0,1-.8,1.52c-.54.79-1,1.18-1.24,1.18a2.63,2.63,0,0,1-1.14-.39,3,3,0,0,1-.75-1.95,18,18,0,0,0-.66,1.81c-.13.25-.07.4-.28.4a.74.74,0,0,1-.71-.34,41.2,41.2,0,0,1,1.38-4.49,39.06,39.06,0,0,1,1.63-4.21A1.05,1.05,0,0,1,177.12,38.89ZM175.3,45.2a5.24,5.24,0,0,0,.57-.22,3.72,3.72,0,0,0,1.33-1.14c.32-.45.44-.72.37-.79s-1,.61-1.59,1.22A3.88,3.88,0,0,0,175.3,45.2Z"/><path class="cls-1" d="M181.87,39.32a.77.77,0,0,1,.33.54,3.08,3.08,0,0,1-.29,1c-1.12,2.77-1.8,4.43-2,5,.18-.26.57-.77,1.19-1.55s1-1.3,1.27-1.6.26-.39.49-.39a.87.87,0,0,1,.48.18c.18.13.28.25.28.38a3.58,3.58,0,0,1-.44,1,7.59,7.59,0,0,0-1.07,2.87q0,.42.15.42a3.76,3.76,0,0,0,1.25-1,7.43,7.43,0,0,0,.82-1s0,0,.06,0,0,.05,0,.08a2.28,2.28,0,0,1-.24.64c-.16.3-.32.58-.49.84-.53.79-1,1.19-1.29,1.19a1.8,1.8,0,0,1-.85-.4q-.56-.42-.3-1.65a7.79,7.79,0,0,1,.52-1.55c-.08.07-.44.49-1.07,1.25a12.29,12.29,0,0,0-1.18,1.66c-.14.23-.24.51-.29.51-.28,0-.73-.24-.73-.51a18.53,18.53,0,0,1,.66-2l1.55-4.52c.21-.64.35-1.12.43-1.3s.08-.23.12-.25A.9.9,0,0,1,181.87,39.32Z"/><path class="cls-1" d="M188.45,43.62a3.93,3.93,0,0,1,.2.4c.13.26.25.42.4.46a1,1,0,0,0,.82-.17c.06,0,.09,0,.07.06a.25.25,0,0,1-.05.16,1.45,1.45,0,0,1-1.44.57,5.07,5.07,0,0,1-.8,1.54c-.59.8-1.14,1.2-1.68,1.2a1.34,1.34,0,0,1-.65-.26,2.12,2.12,0,0,1-.59-.54,2.34,2.34,0,0,1,0-1.75A5.43,5.43,0,0,1,185.92,43a2.28,2.28,0,0,1,1.69-.82,1.2,1.2,0,0,1,.88.49c.22.24.31.42.29.52a.08.08,0,0,1-.09,0,1.67,1.67,0,0,0-1.43.21,3.64,3.64,0,0,0-1.3,1.48,3.87,3.87,0,0,0-.5,1.71.84.84,0,0,0,.11.53c.17.16.69-.1,1.25-1a4,4,0,0,0,.62-1.53.94.94,0,0,0-.05-.43C187.29,43.94,188.34,43.43,188.45,43.62ZM188.31,41a7.57,7.57,0,0,0,.56-.74,2.74,2.74,0,0,0,.46-1c0-.29,0-.45-.07-.45-.46,0-1.39.9-1.38.9s0-.3.11-.47a3.16,3.16,0,0,1,.52-.85c.16-.18.29-.27.43-.27a1.63,1.63,0,0,1,.84.39c.34.26.52.5.51.73a2.17,2.17,0,0,1-.94,1.41,3,3,0,0,1-.62.4,1.31,1.31,0,0,1-.5.23C188.16,41.26,188.18,41.19,188.31,41Z"/><path class="cls-1" d="M190.47,45.9a2.71,2.71,0,0,0-.1.67c0,.29,0,.45.15.51.33.15,1.22-.21,2.16-.89a8,8,0,0,0,1.26-1.09s.1,0,.1,0a4.74,4.74,0,0,1-.95,1.48c-.88,1-1.7,1.33-2.2,1.26a2.06,2.06,0,0,1-1.24-.85,2.63,2.63,0,0,1-.09-1.81,5.17,5.17,0,0,1,1.15-2.36,1.57,1.57,0,0,1,1.2-.68,1.66,1.66,0,0,1,.81.37,2.24,2.24,0,0,1,.62.64,1.55,1.55,0,0,1-.55,1.64A4.61,4.61,0,0,1,190.47,45.9Zm.15-.51a3.59,3.59,0,0,0,.57-.33,3.24,3.24,0,0,0,1.13-1.18c.25-.49.29-.74.14-.74a2.05,2.05,0,0,0-1.05.77A5.73,5.73,0,0,0,190.62,45.39Z"/></g></g></svg>