<svg xmlns="http://www.w3.org/2000/svg" viewBox="0 0 22.83 27.2"><defs><style>.cls-1{fill:#757575;}</style></defs><title>Asset 44</title><g id="Layer_2" data-name="Layer 2"><g id="Layer_1-2" data-name="Layer 1"><path class="cls-1" d="M19.32,25.89l-4.38-6.45c-.28.21-.58.44-.89.65a.8.8,0,0,1-1.29-.21c-.65-.94-1.28-1.89-1.92-2.84L9,14.34c-.9-1.35-1.81-2.69-2.7-4a.74.74,0,0,1,.21-1.07l.82-.56c.09-.05.16-.12.24-.17L3.24,2.08A5.44,5.44,0,0,0,1.59,3.49,8,8,0,0,0,0,8.72a14.63,14.63,0,0,0,1.32,5.4,30.37,30.37,0,0,0,3.47,5.93,22.82,22.82,0,0,0,4.56,4.8,10.54,10.54,0,0,0,5.42,2.31A6.06,6.06,0,0,0,19.32,25.89Z" transform="translate(0 0)"/><path class="cls-1" d="M9.4,7.25A2.44,2.44,0,0,0,11,4.61a2.65,2.65,0,0,0-.38-1C10.09,2.76,9.5,1.89,8.9,1A2.29,2.29,0,0,0,5.72.38L5.06.82Z" transform="translate(0 0)"/><path class="cls-1" d="M16.76,18.23l4.36,6.45a2.68,2.68,0,0,0,1.71-2.25,2.32,2.32,0,0,0-.42-1.38c-.57-.86-1.15-1.72-1.74-2.57a2.28,2.28,0,0,0-3.28-.64C17.18,18,17,18.09,16.76,18.23Z" transform="translate(0 0)"/></g></g></svg>