<svg xmlns="http://www.w3.org/2000/svg" viewBox="0 0 40.89 44.8"><defs><style>.cls-1{fill:#0cd0c1;}.cls-2{fill:#fff;}</style></defs><title>Asset 13</title><g id="Layer_2" data-name="Layer 2"><g id="Layer_1-2" data-name="Layer 1"><path class="cls-1" d="M16.63,7.76H37.08a6.59,6.59,0,0,0-.34-3.21A7.75,7.75,0,0,0,31.84,0l-.07.12c-1.72-.26-7.72,3.59-9.41,6.1a3.1,3.1,0,0,0-2.7-1.48,3.05,3.05,0,0,0-2.89,1.88c-1.36-2-6-5-7.36-4.75a.31.31,0,0,1-.05-.1A6.07,6.07,0,0,0,5.51,5.35a5.16,5.16,0,0,0-.29,2.41Zm15-7.32A16.72,16.72,0,0,1,23,7l-.33.1a.5.5,0,0,0,0-.12Zm-15,6.85v.07l-.32-.08A13.21,13.21,0,0,1,9.55,2.12Z"/><path class="cls-1" d="M38,9.25H2.89A2.76,2.76,0,0,0,0,11.87v1.36a2.76,2.76,0,0,0,2.89,2.62H38a2.76,2.76,0,0,0,2.89-2.62V11.87A2.76,2.76,0,0,0,38,9.25ZM21.48,14.91H17.84V10.19h3.64Z"/><polygon class="cls-1" points="2.39 17.27 2.39 44.8 38.5 44.8 38.5 41.81 38.5 17.27 9.26 17.27 2.39 17.27"/><path class="cls-2" d="M17.08,30c-.84-.23-1.66-.47-2.38-.72a1.11,1.11,0,0,0-.37-.09,2.86,2.86,0,0,1-2.74-3.14c0-2,1.22-3.27,2.89-3.27s2.78,1.31,2.78,3.14a2.89,2.89,0,0,1-1.77,3v0c.62.15,1.29.3,1.82.39Zm-.67-4c0-1.25-.64-2.53-2-2.53s-2,1.26-2,2.6.72,2.5,2,2.5S16.41,27.39,16.41,26Z"/><path class="cls-2" d="M19.1,22.9v3.67c0,1.39.62,2,1.45,2s1.5-.6,1.5-2V22.9h.81v3.62c0,1.9-1,2.69-2.34,2.69s-2.23-.73-2.23-2.65V22.9Z"/><path class="cls-2" d="M24.94,27.15l-.64,2h-.83l2.11-6.2h1l2.12,6.2H27.8l-.66-2Zm.76-5.66.84,1.07h-.65l-1.18-1.07Zm1.28,5-.61-1.79c-.14-.4-.23-.77-.32-1.13h0c-.09.37-.19.75-.31,1.12l-.61,1.8Z"/><path class="cls-2" d="M11.19,34.62H9.3v-.68h4.59v.68H12v5.53h-.81Z"/><path class="cls-2" d="M14.9,38.19l-.65,2h-.83l2.11-6.21h1l2.11,6.21h-.85l-.67-2Zm.45-5.7c0,.21.21.45.66.45s.62-.21.67-.45h.46c0,.54-.35,1-1.14,1s-1.12-.43-1.13-1Zm1.58,5.08-.61-1.79c-.14-.4-.23-.77-.32-1.13h0c-.09.37-.19.75-.31,1.12l-.61,1.8Zm-1.39,3.77a.47.47,0,0,1,.46-.46.45.45,0,0,1,.44.46.46.46,0,0,1-.44.47A.47.47,0,0,1,15.54,41.34Z"/><path class="cls-2" d="M19.52,40.15V33.94h.88l2,3.14a18.25,18.25,0,0,1,1.11,2h0a25.51,25.51,0,0,1-.1-2.55v-2.6h.76v6.21h-.81L21.4,37a19.78,19.78,0,0,1-1.16-2.07h0c.05.78.07,1.53.07,2.56v2.65Z"/><path class="cls-2" d="M30.3,39.87a5.78,5.78,0,0,1-1.91.34,2.91,2.91,0,0,1-3.18-3.13,3.11,3.11,0,0,1,3.36-3.2,3.94,3.94,0,0,1,1.54.28l-.19.66a3.14,3.14,0,0,0-1.37-.27A2.32,2.32,0,0,0,26.06,37a2.27,2.27,0,0,0,2.39,2.51,2.68,2.68,0,0,0,1.07-.17V37.53H28.26v-.64h2Z"/></g></g></svg>