<svg xmlns="http://www.w3.org/2000/svg" viewBox="0 0 67.68 68.83"><defs><style>.cls-1{fill:#757575;}</style></defs><title>Asset 41</title><g id="Layer_2" data-name="Layer 2"><g id="Layer_1-2" data-name="Layer 1"><path class="cls-1" d="M63.91,40.35H3.77A3.77,3.77,0,0,1,0,36.58V21.42a3.77,3.77,0,0,1,3.77-3.77H63.91a3.77,3.77,0,0,1,3.77,3.77V36.58A3.77,3.77,0,0,1,63.91,40.35ZM3.77,20.88a.54.54,0,0,0-.53.54V36.58a.53.53,0,0,0,.53.53H63.91a.54.54,0,0,0,.54-.53V21.42a.54.54,0,0,0-.54-.54Z"/><path class="cls-1" d="M58.46,68.83H9.22a3.78,3.78,0,0,1-3.78-3.77V39.17a1.62,1.62,0,0,1,3.24,0V65.06a.54.54,0,0,0,.54.54H58.46a.54.54,0,0,0,.54-.54V39.17a1.62,1.62,0,0,1,3.24,0V65.06A3.77,3.77,0,0,1,58.46,68.83Z"/><rect class="cls-1" x="27.82" y="19.22" width="12.04" height="19.77"/><rect class="cls-1" x="29.26" y="38.81" width="9.17" height="28.22"/><path class="cls-1" d="M60.28,9.52C57.94,4.13,54.75-1.29,48.24,2s-14.56,11.5-14.56,11.5-8.81-12-14.2-13.3S8.7,4.84,7.26,9.52,8.52,19,13,19.22s26.6.72,26.6.72l16.9-.9S62.62,14.91,60.28,9.52ZM24,15.9s-6.9.12-8.87-1.62c-2.74-2.41-.64-7.74,2.91-6.93,1.6.37,5.64,4,6.12,5.32A5.88,5.88,0,0,1,24,15.9Zm28-.81c-2.19,1.94-9.88,1.8-9.88,1.8a6.61,6.61,0,0,1-.18-3.6c.54-1.44,5-5.52,6.83-5.93C52.73,6.46,55.07,12.39,52,15.09Z"/><polygon class="cls-1" points="27.77 37.76 6.88 58.12 6.88 60.96 30.68 37.76 27.77 37.76"/><polygon class="cls-1" points="41.33 67.56 59.75 49.6 59.75 46.77 38.42 67.56 41.33 67.56"/><polygon class="cls-1" points="17.46 37.76 6.88 48.08 6.88 50.91 20.37 37.76 17.46 37.76"/><polygon class="cls-1" points="38.07 37.76 7.51 67.56 10.42 67.56 40.98 37.76 38.07 37.76"/><polygon class="cls-1" points="48.73 67.56 51.64 67.56 59.75 59.65 59.75 56.81 48.73 67.56"/><polygon class="cls-1" points="20.72 67.56 51.29 37.76 48.38 37.76 17.81 67.56 20.72 67.56"/><polygon class="cls-1" points="31.03 67.56 59.75 39.56 59.75 37.76 58.68 37.76 28.12 67.56 31.03 67.56"/></g></g></svg>