<svg xmlns="http://www.w3.org/2000/svg" viewBox="0 0 73.13 76.61"><defs><style>.cls-1{fill:#757575;}</style></defs><title>Asset 40</title><g id="Layer_2" data-name="Layer 2"><g id="Layer_1-2" data-name="Layer 1"><path class="cls-1" d="M21.32,76.61a14.07,14.07,0,0,1-1.91-1.16,5.44,5.44,0,0,1-2.06-4.15c0-.85-.06-1.71-.06-2.56q0-22.41,0-44.81a6.27,6.27,0,0,1,1.49-4.35,5.47,5.47,0,0,1,4.14-2c8.39,0,16.79,0,25.19,0a5.57,5.57,0,0,1,5.08,3.36,5.59,5.59,0,0,1,.57,2.67c0,1,0,2.09,0,3.14,0,.28-.07.35-.37.36a16.72,16.72,0,0,0-2.12.21c-.32.06-.38,0-.38-.31,0-.93,0-1.87,0-2.8,0-.35-.12-.46-.47-.46q-14.88,0-29.75,0c-.37,0-.48.12-.48.48q0,23,0,46c0,.31.11.41.4.4s.54,0,.81,0H50.33c.55,0,.55,0,.54-.55,0-.26,0-.51,0-.77s.09-.33.31-.33c.77,0,1.53,0,2.3,0,.09,0,.24.13.24.2,0,1.49.17,3-.56,4.39a5.84,5.84,0,0,1-3.22,2.94,1,1,0,0,0-.17.13Z"/><path class="cls-1" d="M0,21.93a4.81,4.81,0,0,0,.17-.73A21.93,21.93,0,0,1,1.34,16,23.35,23.35,0,0,1,5.15,9a23.68,23.68,0,0,1,7.44-6.2A22.63,22.63,0,0,1,19.42.45c1-.18,2-.25,3-.37A2,2,0,0,0,22.78,0H24a1.77,1.77,0,0,0,.24.17,1.39,1.39,0,0,1,.85,1.68,1.4,1.4,0,0,1-1.36,1.08A20.58,20.58,0,0,0,14.2,5.25,20.82,20.82,0,0,0,6,12.78a19.57,19.57,0,0,0-2.13,4.59,20.14,20.14,0,0,0-1,5.82,2.09,2.09,0,0,1-.31,1.43,1.42,1.42,0,0,1-2.4-.17,2,2,0,0,0-.2-.22Z"/><path class="cls-1" d="M63.19,61v-.46q0-4.68,0-9.35a6,6,0,0,0-3-5.44,5.52,5.52,0,0,0-2.91-.82c-5.07,0-10.14,0-15.22,0-1,0-1.2-.15-1.58-1.07a4.33,4.33,0,0,1,1-5l8.31-8.32a4.35,4.35,0,0,1,6.27,0L71.89,46.3a4.33,4.33,0,0,1,.07,6c-2.82,2.86-5.68,5.7-8.52,8.54A1.87,1.87,0,0,1,63.19,61Zm-5.3-23.67a1.41,1.41,0,0,0-.43-1.1c-1.09-1.09-2.2-2.17-3.27-3.28a1.57,1.57,0,0,0-1.93-.15c-.59.51-1.15,1-1.69,1.61a1.58,1.58,0,0,0,0,2.29l3.09,3.08a1.57,1.57,0,0,0,2.37,0c.45-.43.89-.88,1.32-1.33A1.5,1.5,0,0,0,57.89,37.31Z"/><path class="cls-1" d="M45.94,46.61c3.83,0,7.67,0,11.5,0a4.18,4.18,0,0,1,4.05,4.31c0,4,0,8.1,0,12.15a4.28,4.28,0,0,1-3.79,4.15c-.5,0-1,.07-1.49.07H35a4.33,4.33,0,0,1-4-2.25,3.79,3.79,0,0,1-.52-1.9c0-4.15,0-8.3,0-12.46a4.2,4.2,0,0,1,4.09-4.08ZM46,54.45H32.4c-.28,0-.5,0-.5.39,0,2.66,0,5.32,0,8a2.81,2.81,0,0,0,2.79,3q11.23,0,22.47,0a2.8,2.8,0,0,0,1.17-.28A2.87,2.87,0,0,0,60,62.67c0-2.56,0-5.11,0-7.67,0-.54,0-.55-.56-.55ZM46,50.6H59.6c.28,0,.35-.08.29-.36A2.91,2.91,0,0,0,57,48.06H34.84a2.91,2.91,0,0,0-2.79,2c-.13.41-.08.49.37.49Z"/><path class="cls-1" d="M42.46,34.91c-.32-.27-.63-.51-.91-.78a8.37,8.37,0,0,0-7.26-2.37A8.68,8.68,0,0,0,27,41.85a8.76,8.76,0,0,0,2.58,4.79,1.43,1.43,0,0,0,.23.2c.24.16.24.3.09.57A17.39,17.39,0,0,0,29,49.24c-.19.45-.2.48-.58.19A11.59,11.59,0,0,1,28.1,31.5,11.18,11.18,0,0,1,33.2,29a11.73,11.73,0,0,1,5,.07,11.25,11.25,0,0,1,6,3.64.41.41,0,0,1,0,.38C43.64,33.74,43,34.35,42.46,34.91Z"/><path class="cls-1" d="M5.89,23a17.7,17.7,0,0,1,1.17-5.66A17.84,17.84,0,0,1,16.89,7.27a17.29,17.29,0,0,1,6.77-1.34,1.39,1.39,0,0,1,1.47,1.41,1.4,1.4,0,0,1-1.4,1.46c-.94.07-1.88.15-2.81.28a12.61,12.61,0,0,0-3.83,1.27A14.86,14.86,0,0,0,11,15.89a13.34,13.34,0,0,0-1.93,4.9c-.16,1-.25,2-.33,3A1.43,1.43,0,0,1,7.29,25.2a1.39,1.39,0,0,1-1.4-1.41Z"/><path class="cls-1" d="M14,23.08a2.13,2.13,0,0,1-.38,1.61A1.36,1.36,0,0,1,12,25.1a1.3,1.3,0,0,1-.92-1.2,8.58,8.58,0,0,1,.07-1.6,12.26,12.26,0,0,1,2.29-5.92,12.67,12.67,0,0,1,5.1-4.15,13.94,13.94,0,0,1,4.92-1.12A1.55,1.55,0,0,1,25,12a1.34,1.34,0,0,1-.43,1.65,2,2,0,0,1-1.06.36,9.54,9.54,0,0,0-7.41,3.62A9.35,9.35,0,0,0,14,23.08Z"/><path class="cls-1" d="M36.25,44.8c-1,.12-2.09.25-3.14.36a.43.43,0,0,1-.32-.12,3.45,3.45,0,0,1-.72-2,.29.29,0,0,1,.2-.19c.44,0,.87,0,1.31,0,.08,0,.21.17.23.27.15.87.5,1.29,1.22,1.42a2,2,0,0,0,2-.86,1.44,1.44,0,0,0-.55-2c-.73-.44-1.5-.81-2.26-1.2a3.41,3.41,0,0,1-2-2,2.68,2.68,0,0,1,1.3-3.33c.13-.06.25-.13.38-.18.57-.22.57-.22.57-.85,0-.87,0-.87.88-.87,1.06,0,1.08,0,1.06,1a.51.51,0,0,0,.43.6,2.76,2.76,0,0,1,1.94,2.29c0,.23,0,.35-.28.35s-.79,0-1.18,0a.39.39,0,0,1-.27-.23,1.53,1.53,0,0,0-1.33-1.15A1.8,1.8,0,0,0,34,37a1.24,1.24,0,0,0,.39,1.51c.63.43,1.32.76,2,1.15s1.05.63,1.55,1a.52.52,0,0,1,.17.41,5.87,5.87,0,0,0,.39,3.21c.15.37,0,.61-.41.61h-1.8Z"/><path class="cls-1" d="M45.93,60.71H34.2c-.35,0-.47-.1-.46-.46,0-.58,0-1.17,0-1.76s0-.5.49-.5H57.66c.5,0,.52,0,.53.52s0,1.15,0,1.73c0,.39-.13.47-.49.47Z"/></g></g></svg>