<svg xmlns="http://www.w3.org/2000/svg" viewBox="0 0 26.26 24.38"><defs><style>.cls-1{fill:#fff;}</style></defs><title>Asset 6</title><g id="Layer_2" data-name="Layer 2"><g id="Layer_1-2" data-name="Layer 1"><path class="cls-1" d="M0,24.38c0-.39,0-.77,0-1.15a9.07,9.07,0,0,1,.74-3.11A5,5,0,0,1,2.9,17.76a27.84,27.84,0,0,1,4.74-1.92c.61-.21,1.22-.43,1.81-.69a1.74,1.74,0,0,0,.89-1.61.46.46,0,0,0-.11-.22A14,14,0,0,1,7.92,7.27a10.5,10.5,0,0,1,0-3.58A4.16,4.16,0,0,1,11.67.1a8.94,8.94,0,0,1,2.92,0,4.14,4.14,0,0,1,3.6,3.79A13.68,13.68,0,0,1,17,11.23c-.27.64-.66,1.23-1,1.84a.92.92,0,0,0-.12.41,1.89,1.89,0,0,0,1.31,1.91c1.28.43,2.55.87,3.81,1.35.72.28,1.41.64,2.11,1a5.16,5.16,0,0,1,2.77,3.54,10.78,10.78,0,0,1,.37,2.83c0,.09,0,.19,0,.29Z"/></g></g></svg>