<svg xmlns="http://www.w3.org/2000/svg" viewBox="0 0 28.78 28.78"><defs><style>.cls-1{fill:none;stroke:#757575;stroke-miterlimit:10;}.cls-2{fill:#757575;}.cls-3{fill:#fff;}</style></defs><title>Asset 21</title><g id="Layer_2" data-name="Layer 2"><g id="Layer_1-2" data-name="Layer 1"><circle class="cls-1" cx="14.39" cy="14.39" r="13.89"/><path class="cls-2" d="M14.83,19.35l-2.38,0-1.12,0-1-.08A2.82,2.82,0,0,1,9.6,19a1.48,1.48,0,0,1-.93-.91,3.12,3.12,0,0,1-.18-.73A14,14,0,0,1,8.36,16c0-.37,0-.75,0-1.12a7.12,7.12,0,0,1,0-.8c0-.26,0-.53,0-.79a8.73,8.73,0,0,1,.16-1.35c0-.15.07-.29.11-.43a1.49,1.49,0,0,1,1-1,3.32,3.32,0,0,1,.7-.13l1.06-.08,1.05,0c.54,0,1.07,0,1.61,0,.35,0,.69,0,1,0l2.21,0,1.3.06.68,0a3.4,3.4,0,0,1,.72.14,1.5,1.5,0,0,1,1,1,3.34,3.34,0,0,1,.17.76c.07.53.11,1.08.13,1.62s0,.8,0,1.21-.05,1-.08,1.52a7.64,7.64,0,0,1-.14,1.07,3.64,3.64,0,0,1-.14.47,1.45,1.45,0,0,1-1,.91,2.87,2.87,0,0,1-.66.14c-.45,0-.91.07-1.37.09l-1.31,0Zm-1.28-2.62c.12-.05,3.34-1.92,3.38-2l-3.38-1.95Z"/><path class="cls-3" d="M13.55,16.73V12.81l3.38,1.95C16.89,14.81,13.67,16.68,13.55,16.73Z"/></g></g></svg>