<svg xmlns="http://www.w3.org/2000/svg" viewBox="0 0 28.78 28.78"><defs><style>.cls-1{fill:none;stroke:#757575;stroke-miterlimit:10;}.cls-2{fill:#757575;}</style></defs><title>Asset 16</title><g id="Layer_2" data-name="Layer 2"><g id="Layer_1-2" data-name="Layer 1"><circle class="cls-1" cx="14.39" cy="14.39" r="13.89"/><path class="cls-2" d="M6.43,16.65h3a1.37,1.37,0,0,1,.4.05.65.65,0,0,1,.52.63.91.91,0,0,1,0,.33.6.6,0,0,1-.4.47,1.09,1.09,0,0,1-.35.07H5.14a1.83,1.83,0,0,1-.4-.05A.86.86,0,0,1,4.16,17a1.74,1.74,0,0,1,.27-.45l3.06-3.89.28-.35c.07-.09,0-.17-.08-.19H5.22A2.05,2.05,0,0,1,4.73,12a.69.69,0,0,1-.52-.68.73.73,0,0,1,.53-.68,2.32,2.32,0,0,1,.45-.06h4a2.42,2.42,0,0,1,.47.06.7.7,0,0,1,.46.31.72.72,0,0,1,.08.68,2.15,2.15,0,0,1-.37.66c-.32.43-.65.86-1,1.28L6.72,16.23l-.23.3A1.3,1.3,0,0,0,6.43,16.65Z"/><path class="cls-2" d="M14.57,13l.16-.18a.82.82,0,0,1,.44-.29.92.92,0,0,1,.59.05.76.76,0,0,1,.49.75c0,1.08,0,2.15,0,3.23,0,.31,0,.61,0,.92a.86.86,0,0,1-1.29.74L14.78,18a.94.94,0,0,0-.1-.1c-.09-.1-.15-.11-.27,0L14.3,18a2.16,2.16,0,0,1-.84.39,2.35,2.35,0,0,1-1.31-.13,2.49,2.49,0,0,1-1.63-1.76,4.08,4.08,0,0,1-.17-1.39,2.77,2.77,0,0,1,1.39-2.35,2.56,2.56,0,0,1,1-.37,2,2,0,0,1,1.18.15,2.82,2.82,0,0,1,.57.35Zm-2.51,2.46a1.57,1.57,0,0,0,.25.87,1.19,1.19,0,0,0,2-.08,1.76,1.76,0,0,0,.09-1.47,1.15,1.15,0,0,0-1.15-.81,1.13,1.13,0,0,0-1,.59A1.85,1.85,0,0,0,12.06,15.43Z"/><path class="cls-2" d="M22.36,12.37a3,3,0,0,1,1.66.46,2.69,2.69,0,0,1,1.23,1.68,3.4,3.4,0,0,1-.11,2.09,2.76,2.76,0,0,1-1.94,1.72,3.26,3.26,0,0,1-1,.11,2.82,2.82,0,0,1-2.66-2.21,3.89,3.89,0,0,1,0-1.18,3.09,3.09,0,0,1,.35-1.19,2.73,2.73,0,0,1,2-1.44A4.55,4.55,0,0,1,22.36,12.37Zm.05,1.57a1.17,1.17,0,0,0-1.15.81,2.24,2.24,0,0,0-.09.45,1.56,1.56,0,0,0,.28,1.15,1.07,1.07,0,0,0,.92.48,1.14,1.14,0,0,0,1.09-.68,1.76,1.76,0,0,0,0-1.44A1.15,1.15,0,0,0,22.41,13.94Z"/><path class="cls-2" d="M17.08,14.12v-3.2a1.42,1.42,0,0,1,0-.36.76.76,0,0,1,.73-.57h.24a.79.79,0,0,1,.69.8c0,.14,0,.27,0,.4v6.19a.88.88,0,0,1-.32.71.82.82,0,0,1-1.32-.33,1.59,1.59,0,0,1-.06-.3,1.61,1.61,0,0,1,0-.22V14.12Z"/></g></g></svg>